<mxfile host="65bd71144e">
    <diagram id="tB6FfFDHqaTuA0j6voBJ" name="Login">
        <mxGraphModel dx="1654" dy="351" grid="1" gridSize="10" guides="1" tooltips="1" connect="1" arrows="1" fold="1" page="1" pageScale="1" pageWidth="850" pageHeight="1100" math="0" shadow="0">
            <root>
                <mxCell id="0"/>
                <mxCell id="1" parent="0"/>
                <mxCell id="2" value="" style="strokeWidth=1;shadow=0;dashed=0;align=center;html=1;shape=mxgraph.mockup.forms.rrect;rSize=0;strokeColor=#999999;fillColor=#ffffff;" parent="1" vertex="1">
                    <mxGeometry x="325" y="180" width="200" height="300" as="geometry"/>
                </mxCell>
                <mxCell id="3" value="Sign In" style="strokeWidth=1;shadow=0;dashed=0;align=center;html=1;shape=mxgraph.mockup.forms.anchor;fontSize=12;fontColor=#666666;align=left;resizeWidth=1;spacingLeft=0;" parent="2" vertex="1">
                    <mxGeometry width="100" height="20" relative="1" as="geometry">
                        <mxPoint x="10" y="10" as="offset"/>
                    </mxGeometry>
                </mxCell>
                <mxCell id="4" value="" style="shape=line;strokeColor=#ddeeff;strokeWidth=2;html=1;resizeWidth=1;" parent="2" vertex="1">
                    <mxGeometry width="180" height="10" relative="1" as="geometry">
                        <mxPoint x="10" y="30" as="offset"/>
                    </mxGeometry>
                </mxCell>
                <mxCell id="5" value="User Name:" style="strokeWidth=1;shadow=0;dashed=0;align=center;html=1;shape=mxgraph.mockup.forms.anchor;fontSize=12;fontColor=#666666;align=left;resizeWidth=1;spacingLeft=0;" parent="2" vertex="1">
                    <mxGeometry width="100" height="20" relative="1" as="geometry">
                        <mxPoint x="10" y="40" as="offset"/>
                    </mxGeometry>
                </mxCell>
                <mxCell id="6" value="" style="strokeWidth=1;shadow=0;dashed=0;align=center;html=1;shape=mxgraph.mockup.forms.rrect;rSize=0;strokeColor=#999999;fontColor=#666666;align=left;spacingLeft=5;resizeWidth=1;" parent="2" vertex="1">
                    <mxGeometry width="170" height="25" relative="1" as="geometry">
                        <mxPoint x="10" y="60" as="offset"/>
                    </mxGeometry>
                </mxCell>
                <mxCell id="9" value="SIGN IN" style="strokeWidth=1;shadow=0;dashed=0;align=center;html=1;shape=mxgraph.mockup.forms.rrect;rSize=5;strokeColor=none;fontColor=#ffffff;fillColor=#66bbff;fontSize=16;fontStyle=1;" parent="2" vertex="1">
                    <mxGeometry y="1" width="80" height="30" relative="1" as="geometry">
                        <mxPoint x="10" y="-200" as="offset"/>
                    </mxGeometry>
                </mxCell>
                <mxCell id="11" value="" style="shape=line;strokeColor=#ddeeff;strokeWidth=2;html=1;resizeWidth=1;" parent="2" vertex="1">
                    <mxGeometry y="1" width="180" height="10" relative="1" as="geometry">
                        <mxPoint x="10" y="-145" as="offset"/>
                    </mxGeometry>
                </mxCell>
                <mxCell id="13" value="SIGN UP" style="strokeWidth=1;shadow=0;dashed=0;align=center;html=1;shape=mxgraph.mockup.forms.rrect;rSize=5;strokeColor=none;fontColor=#ffffff;fillColor=#66bbff;fontSize=16;fontStyle=1;" parent="2" vertex="1">
                    <mxGeometry y="1" width="80" height="30" relative="1" as="geometry">
                        <mxPoint x="105" y="-200" as="offset"/>
                    </mxGeometry>
                </mxCell>
            </root>
        </mxGraphModel>
    </diagram>
    <diagram id="wQwSTN0SP8rA77u6v9ed" name="Main Page">
        <mxGraphModel dx="2425" dy="334" grid="1" gridSize="10" guides="1" tooltips="1" connect="1" arrows="1" fold="1" page="1" pageScale="1" pageWidth="850" pageHeight="1100" math="0" shadow="0">
            <root>
                <mxCell id="0"/>
                <mxCell id="1" parent="0"/>
                <mxCell id="AFIjvNQLvGPmOUvLb4RM-1" value="Home" style="strokeWidth=1;shadow=0;dashed=0;align=center;html=1;shape=mxgraph.mockup.containers.window;align=left;verticalAlign=top;spacingLeft=8;strokeColor2=#008cff;strokeColor3=#c4c4c4;fontColor=#666666;mainText=;fontSize=17;labelBackgroundColor=none;" parent="1" vertex="1">
                    <mxGeometry width="844.48" height="680" as="geometry"/>
                </mxCell>
                <mxCell id="AFIjvNQLvGPmOUvLb4RM-2" value="" style="verticalLabelPosition=bottom;shadow=0;dashed=0;align=center;html=1;verticalAlign=top;strokeWidth=1;shape=mxgraph.mockup.forms.splitter;strokeColor=#999999;direction=north;" parent="1" vertex="1">
                    <mxGeometry x="11" y="49" width="10" height="610" as="geometry"/>
                </mxCell>
                <mxCell id="AFIjvNQLvGPmOUvLb4RM-20" value="New" style="html=1;shadow=0;dashed=0;shape=mxgraph.bootstrap.rrect;rSize=5;fillColor=#0085FC;strokeColor=none;fontSize=14;fontColor=#ffffff;" parent="1" vertex="1">
                    <mxGeometry x="40" y="35" width="70" height="40" as="geometry"/>
                </mxCell>
                <mxCell id="AFIjvNQLvGPmOUvLb4RM-46" value="" style="group" parent="1" vertex="1" connectable="0">
                    <mxGeometry x="554" y="35" width="270" height="40" as="geometry"/>
                </mxCell>
                <mxCell id="AFIjvNQLvGPmOUvLb4RM-24" value="" style="shape=rect;fillColor=#e0e0e0;strokeColor=none;" parent="AFIjvNQLvGPmOUvLb4RM-46" vertex="1">
                    <mxGeometry width="242" height="40" as="geometry"/>
                </mxCell>
                <mxCell id="AFIjvNQLvGPmOUvLb4RM-25" value="" style="html=1;strokeWidth=1;shadow=0;dashed=0;shape=mxgraph.ios7ui.marginRect;rx=3;ry=3;rectMargin=5;strokeColor=none;" parent="AFIjvNQLvGPmOUvLb4RM-24" vertex="1">
                    <mxGeometry width="242" height="40" as="geometry"/>
                </mxCell>
                <mxCell id="AFIjvNQLvGPmOUvLb4RM-40" value="Tag Name" style="dashed=0;html=1;fillColor=#F0F2F5;strokeColor=none;align=center;rounded=1;arcSize=10;fontColor=#3384FF;fontStyle=1;fontSize=11;shadow=0" parent="AFIjvNQLvGPmOUvLb4RM-24" vertex="1">
                    <mxGeometry x="10" y="10" width="60" height="20" as="geometry"/>
                </mxCell>
                <mxCell id="AFIjvNQLvGPmOUvLb4RM-43" value="Tag Name" style="dashed=0;html=1;fillColor=#F0F2F5;strokeColor=none;align=center;rounded=1;arcSize=10;fontColor=#3384FF;fontStyle=1;fontSize=11;shadow=0" parent="AFIjvNQLvGPmOUvLb4RM-24" vertex="1">
                    <mxGeometry x="75" y="10" width="60" height="20" as="geometry"/>
                </mxCell>
                <mxCell id="AFIjvNQLvGPmOUvLb4RM-44" value="Tag." style="dashed=0;html=1;fillColor=#F0F2F5;strokeColor=none;align=center;rounded=1;arcSize=10;fontColor=#3384FF;fontStyle=1;fontSize=11;shadow=0" parent="AFIjvNQLvGPmOUvLb4RM-24" vertex="1">
                    <mxGeometry x="205" y="10" width="25" height="20" as="geometry"/>
                </mxCell>
                <mxCell id="AFIjvNQLvGPmOUvLb4RM-45" value="Tag Name" style="dashed=0;html=1;fillColor=#F0F2F5;strokeColor=none;align=center;rounded=1;arcSize=10;fontColor=#3384FF;fontStyle=1;fontSize=11;shadow=0" parent="AFIjvNQLvGPmOUvLb4RM-24" vertex="1">
                    <mxGeometry x="140" y="10" width="60" height="20" as="geometry"/>
                </mxCell>
                <mxCell id="AFIjvNQLvGPmOUvLb4RM-27" value="" style="html=1;verticalLabelPosition=bottom;align=center;labelBackgroundColor=#ffffff;verticalAlign=top;strokeWidth=2;strokeColor=#0080F0;shadow=0;dashed=0;shape=mxgraph.ios7.icons.looking_glass;" parent="AFIjvNQLvGPmOUvLb4RM-46" vertex="1">
                    <mxGeometry x="250" y="10" width="20" height="20" as="geometry"/>
                </mxCell>
                <mxCell id="AFIjvNQLvGPmOUvLb4RM-71" value="" style="strokeWidth=1;shadow=0;dashed=0;align=center;html=1;shape=mxgraph.mockup.containers.rrect;rSize=0;strokeColor=#666666;fillColor=#FFFFFF;" parent="1" vertex="1">
                    <mxGeometry x="26" y="80" width="814" height="590" as="geometry"/>
                </mxCell>
                <mxCell id="AFIjvNQLvGPmOUvLb4RM-98" value="" style="group" parent="AFIjvNQLvGPmOUvLb4RM-71" vertex="1" connectable="0">
                    <mxGeometry width="814" height="137.66666666666666" as="geometry"/>
                </mxCell>
                <mxCell id="AFIjvNQLvGPmOUvLb4RM-72" value="" style="strokeColor=inherit;fillColor=inherit;gradientColor=inherit;strokeWidth=1;shadow=0;dashed=0;align=center;html=1;shape=mxgraph.mockup.containers.rrect;rSize=0;fontSize=17;fontColor=#666666;fontStyle=1;resizeWidth=1;" parent="AFIjvNQLvGPmOUvLb4RM-98" vertex="1">
                    <mxGeometry width="814" height="140" relative="1" as="geometry">
                        <mxPoint as="offset"/>
                    </mxGeometry>
                </mxCell>
                <mxCell id="AFIjvNQLvGPmOUvLb4RM-86" value="Tag Name" style="dashed=0;html=1;fillColor=#F0F2F5;strokeColor=none;align=center;rounded=1;arcSize=10;fontColor=#3384FF;fontStyle=1;fontSize=11;shadow=0" parent="AFIjvNQLvGPmOUvLb4RM-98" vertex="1">
                    <mxGeometry x="26.592592592592606" y="106.97988505747126" width="180.88888888888889" height="24.79525862068966" as="geometry"/>
                </mxCell>
                <mxCell id="AFIjvNQLvGPmOUvLb4RM-87" value="Tag Name" style="dashed=0;html=1;fillColor=#F0F2F5;strokeColor=none;align=center;rounded=1;arcSize=10;fontColor=#3384FF;fontStyle=1;fontSize=11;shadow=0" parent="AFIjvNQLvGPmOUvLb4RM-98" vertex="1">
                    <mxGeometry x="222.55555555555557" y="106.97988505747126" width="180.88888888888889" height="24.79525862068966" as="geometry"/>
                </mxCell>
                <mxCell id="AFIjvNQLvGPmOUvLb4RM-88" value="Tag Name" style="dashed=0;html=1;fillColor=#F0F2F5;strokeColor=none;align=center;rounded=1;arcSize=10;fontColor=#3384FF;fontStyle=1;fontSize=11;shadow=0" parent="AFIjvNQLvGPmOUvLb4RM-98" vertex="1">
                    <mxGeometry x="418.51851851851853" y="106.97988505747126" width="180.88888888888889" height="24.79525862068966" as="geometry"/>
                </mxCell>
                <mxCell id="AFIjvNQLvGPmOUvLb4RM-91" value="Item 1" style="strokeWidth=1;shadow=0;dashed=0;align=center;html=1;shape=mxgraph.mockup.containers.rrect;rSize=0;fontSize=17;fontColor=#ffffff;fontStyle=1;fillColor=#008cff;strokeColor=#008cff;resizeWidth=1;" parent="AFIjvNQLvGPmOUvLb4RM-98" vertex="1">
                    <mxGeometry x="19.999999999999996" y="9.833333333333332" width="779.9999999999999" height="29.5" as="geometry"/>
                </mxCell>
                <mxCell id="AFIjvNQLvGPmOUvLb4RM-93" value="dsasdjskdladjasdklasdjasjdjdksald;ajdksald;asjdksald;a&lt;br&gt;dsadsdasdasdasdaddasdaassda" style="strokeWidth=1;shadow=0;dashed=0;align=left;html=1;shape=mxgraph.mockup.containers.rrect;rSize=0;fontSize=17;fontColor=#ffffff;fontStyle=1;fillColor=#008cff;strokeColor=#008cff;resizeWidth=1;" parent="AFIjvNQLvGPmOUvLb4RM-98" vertex="1">
                    <mxGeometry x="19.999999999999996" y="47.199999999999996" width="779.9999999999999" height="49.87466666666666" as="geometry"/>
                </mxCell>
                <mxCell id="AFIjvNQLvGPmOUvLb4RM-94" value="Tag Name" style="dashed=0;html=1;fillColor=#F0F2F5;strokeColor=none;align=center;rounded=1;arcSize=10;fontColor=#3384FF;fontStyle=1;fontSize=11;shadow=0" parent="AFIjvNQLvGPmOUvLb4RM-98" vertex="1">
                    <mxGeometry x="609.9585185185184" y="106.97988505747126" width="180.88888888888889" height="24.79525862068966" as="geometry"/>
                </mxCell>
                <mxCell id="AFIjvNQLvGPmOUvLb4RM-96" value="" style="html=1;verticalLabelPosition=bottom;labelBackgroundColor=#ffffff;verticalAlign=top;shadow=0;dashed=0;strokeWidth=2;shape=mxgraph.ios7.misc.expand;fillColor=#c0c0c0;rotation=-180;" parent="AFIjvNQLvGPmOUvLb4RM-98" vertex="1">
                    <mxGeometry x="713.9999999999999" y="63.778999999999996" width="67.99999999999999" height="16.716666666666665" as="geometry"/>
                </mxCell>
                <mxCell id="AFIjvNQLvGPmOUvLb4RM-99" value="" style="group" parent="AFIjvNQLvGPmOUvLb4RM-71" vertex="1" connectable="0">
                    <mxGeometry y="446.5833333333333" width="814" height="137.66666666666666" as="geometry"/>
                </mxCell>
                <mxCell id="AFIjvNQLvGPmOUvLb4RM-100" value="" style="strokeColor=inherit;fillColor=inherit;gradientColor=inherit;strokeWidth=1;shadow=0;dashed=0;align=center;html=1;shape=mxgraph.mockup.containers.rrect;rSize=0;fontSize=17;fontColor=#666666;fontStyle=1;resizeWidth=1;" parent="AFIjvNQLvGPmOUvLb4RM-99" vertex="1">
                    <mxGeometry width="814" height="140" relative="1" as="geometry">
                        <mxPoint as="offset"/>
                    </mxGeometry>
                </mxCell>
                <mxCell id="AFIjvNQLvGPmOUvLb4RM-101" value="Tag Name" style="dashed=0;html=1;fillColor=#F0F2F5;strokeColor=none;align=center;rounded=1;arcSize=10;fontColor=#3384FF;fontStyle=1;fontSize=11;shadow=0" parent="AFIjvNQLvGPmOUvLb4RM-99" vertex="1">
                    <mxGeometry x="26.592592592592606" y="106.97988505747126" width="180.88888888888889" height="24.79525862068966" as="geometry"/>
                </mxCell>
                <mxCell id="AFIjvNQLvGPmOUvLb4RM-102" value="Tag Name" style="dashed=0;html=1;fillColor=#F0F2F5;strokeColor=none;align=center;rounded=1;arcSize=10;fontColor=#3384FF;fontStyle=1;fontSize=11;shadow=0" parent="AFIjvNQLvGPmOUvLb4RM-99" vertex="1">
                    <mxGeometry x="222.55555555555557" y="106.97988505747126" width="180.88888888888889" height="24.79525862068966" as="geometry"/>
                </mxCell>
                <mxCell id="AFIjvNQLvGPmOUvLb4RM-103" value="Tag Name" style="dashed=0;html=1;fillColor=#F0F2F5;strokeColor=none;align=center;rounded=1;arcSize=10;fontColor=#3384FF;fontStyle=1;fontSize=11;shadow=0" parent="AFIjvNQLvGPmOUvLb4RM-99" vertex="1">
                    <mxGeometry x="418.51851851851853" y="106.97988505747126" width="180.88888888888889" height="24.79525862068966" as="geometry"/>
                </mxCell>
                <mxCell id="AFIjvNQLvGPmOUvLb4RM-104" value="Item 1" style="strokeWidth=1;shadow=0;dashed=0;align=center;html=1;shape=mxgraph.mockup.containers.rrect;rSize=0;fontSize=17;fontColor=#ffffff;fontStyle=1;fillColor=#008cff;strokeColor=#008cff;resizeWidth=1;" parent="AFIjvNQLvGPmOUvLb4RM-99" vertex="1">
                    <mxGeometry x="19.999999999999996" y="9.833333333333332" width="779.9999999999999" height="29.5" as="geometry"/>
                </mxCell>
                <mxCell id="AFIjvNQLvGPmOUvLb4RM-105" value="dsasdjskdladjasdklasdjasjdjdksald;ajdksald;asjdksald;a&lt;br&gt;dsadsdasdasdasdaddasdaassda" style="strokeWidth=1;shadow=0;dashed=0;align=left;html=1;shape=mxgraph.mockup.containers.rrect;rSize=0;fontSize=17;fontColor=#ffffff;fontStyle=1;fillColor=#008cff;strokeColor=#008cff;resizeWidth=1;" parent="AFIjvNQLvGPmOUvLb4RM-99" vertex="1">
                    <mxGeometry x="19.999999999999996" y="47.199999999999996" width="779.9999999999999" height="49.87466666666666" as="geometry"/>
                </mxCell>
                <mxCell id="AFIjvNQLvGPmOUvLb4RM-106" value="Tag Name" style="dashed=0;html=1;fillColor=#F0F2F5;strokeColor=none;align=center;rounded=1;arcSize=10;fontColor=#3384FF;fontStyle=1;fontSize=11;shadow=0" parent="AFIjvNQLvGPmOUvLb4RM-99" vertex="1">
                    <mxGeometry x="609.9585185185184" y="106.97988505747126" width="180.88888888888889" height="24.79525862068966" as="geometry"/>
                </mxCell>
                <mxCell id="AFIjvNQLvGPmOUvLb4RM-107" value="" style="html=1;verticalLabelPosition=bottom;labelBackgroundColor=#ffffff;verticalAlign=top;shadow=0;dashed=0;strokeWidth=2;shape=mxgraph.ios7.misc.expand;fillColor=#c0c0c0;rotation=-180;" parent="AFIjvNQLvGPmOUvLb4RM-99" vertex="1">
                    <mxGeometry x="713.9999999999999" y="63.778999999999996" width="67.99999999999999" height="16.716666666666665" as="geometry"/>
                </mxCell>
                <mxCell id="AFIjvNQLvGPmOUvLb4RM-134" value="" style="rounded=1;whiteSpace=wrap;html=1;fontSize=12;fillColor=#000000;" parent="AFIjvNQLvGPmOUvLb4RM-99" vertex="1">
                    <mxGeometry x="18.850000000000023" y="-11.5" width="780" height="17.33" as="geometry"/>
                </mxCell>
                <mxCell id="AFIjvNQLvGPmOUvLb4RM-119" value="" style="group" parent="AFIjvNQLvGPmOUvLb4RM-71" vertex="1" connectable="0">
                    <mxGeometry y="157.33333333333331" width="813.9999999999999" height="206.5" as="geometry"/>
                </mxCell>
                <mxCell id="AFIjvNQLvGPmOUvLb4RM-120" value="dsadassdfhdsfhsdjfsdklhfsjakdlfsdhfjksadlfhdsjkflsadhfjsdklfsdhfjksdlfhjdskfhsdjkf&lt;br&gt;fdsjkahfjsdhfjkhsdjfhsadjkflsdhfjksdlfhsdjkflsdhjfsdklfhsdajkflsadfjshdfjkhsjkldfsa&lt;br&gt;fdshjkdshfjkashfjdsalfhsdajfklsahfjsadklfhsadjkflsdjfkslahjdksf&lt;br&gt;&lt;br&gt;dsfhsafhsajhfjkdsahfsajhfjksadhjfhsdajfhjksdhfjash" style="strokeColor=inherit;fillColor=inherit;gradientColor=inherit;strokeWidth=1;shadow=0;dashed=0;align=center;html=1;shape=mxgraph.mockup.containers.rrect;rSize=0;fontSize=17;fontColor=#666666;fontStyle=1;resizeWidth=1;" parent="AFIjvNQLvGPmOUvLb4RM-119" vertex="1">
                    <mxGeometry width="813.9999999999999" height="110" relative="1" as="geometry">
                        <mxPoint y="38" as="offset"/>
                    </mxGeometry>
                </mxCell>
                <mxCell id="AFIjvNQLvGPmOUvLb4RM-121" value="Tag Name" style="dashed=0;html=1;fillColor=#F0F2F5;strokeColor=none;align=center;rounded=1;arcSize=10;fontColor=#3384FF;fontStyle=1;fontSize=11;shadow=0" parent="AFIjvNQLvGPmOUvLb4RM-119" vertex="1">
                    <mxGeometry x="26.592592592592602" y="209.4844827586207" width="180.88888888888886" height="21.695851293103452" as="geometry"/>
                </mxCell>
                <mxCell id="AFIjvNQLvGPmOUvLb4RM-122" value="Tag Name" style="dashed=0;html=1;fillColor=#F0F2F5;strokeColor=none;align=center;rounded=1;arcSize=10;fontColor=#3384FF;fontStyle=1;fontSize=11;shadow=0" parent="AFIjvNQLvGPmOUvLb4RM-119" vertex="1">
                    <mxGeometry x="222.55555555555554" y="209.4844827586207" width="180.88888888888886" height="21.695851293103452" as="geometry"/>
                </mxCell>
                <mxCell id="AFIjvNQLvGPmOUvLb4RM-123" value="Tag Name" style="dashed=0;html=1;fillColor=#F0F2F5;strokeColor=none;align=center;rounded=1;arcSize=10;fontColor=#3384FF;fontStyle=1;fontSize=11;shadow=0" parent="AFIjvNQLvGPmOUvLb4RM-119" vertex="1">
                    <mxGeometry x="418.5185185185185" y="209.4844827586207" width="180.88888888888886" height="21.695851293103452" as="geometry"/>
                </mxCell>
                <mxCell id="AFIjvNQLvGPmOUvLb4RM-124" value="Item 1" style="strokeWidth=1;shadow=0;dashed=0;align=center;html=1;shape=mxgraph.mockup.containers.rrect;rSize=0;fontSize=17;fontColor=#ffffff;fontStyle=1;fillColor=#008cff;strokeColor=#008cff;resizeWidth=1;" parent="AFIjvNQLvGPmOUvLb4RM-119" vertex="1">
                    <mxGeometry x="19.999999999999993" y="6.604166666666666" width="779.9999999999998" height="25.8125" as="geometry"/>
                </mxCell>
                <mxCell id="AFIjvNQLvGPmOUvLb4RM-126" value="Tag Name" style="dashed=0;html=1;fillColor=#F0F2F5;strokeColor=none;align=center;rounded=1;arcSize=10;fontColor=#3384FF;fontStyle=1;fontSize=11;shadow=0" parent="AFIjvNQLvGPmOUvLb4RM-119" vertex="1">
                    <mxGeometry x="609.9585185185183" y="209.4844827586207" width="180.88888888888886" height="21.695851293103452" as="geometry"/>
                </mxCell>
                <mxCell id="AFIjvNQLvGPmOUvLb4RM-127" value="" style="html=1;verticalLabelPosition=bottom;labelBackgroundColor=#ffffff;verticalAlign=top;shadow=0;dashed=0;strokeWidth=2;shape=mxgraph.ios7.misc.expand;fillColor=#c0c0c0;rotation=0;" parent="AFIjvNQLvGPmOUvLb4RM-119" vertex="1">
                    <mxGeometry x="713.9999999999998" y="12.196874999999999" width="67.99999999999997" height="14.627083333333333" as="geometry"/>
                </mxCell>
                <mxCell id="AFIjvNQLvGPmOUvLb4RM-133" value="" style="rounded=1;whiteSpace=wrap;html=1;fontSize=12;fillColor=#000000;" parent="AFIjvNQLvGPmOUvLb4RM-119" vertex="1">
                    <mxGeometry x="20" y="-17.33" width="780" height="17.33" as="geometry"/>
                </mxCell>
                <mxCell id="AFIjvNQLvGPmOUvLb4RM-128" value="Tag Name" style="dashed=0;html=1;fillColor=#F0F2F5;strokeColor=none;align=center;rounded=1;arcSize=10;fontColor=#3384FF;fontStyle=1;fontSize=11;shadow=0" parent="AFIjvNQLvGPmOUvLb4RM-71" vertex="1">
                    <mxGeometry x="24.872592592592607" y="399.97005172413793" width="180.88888888888889" height="24.79525862068966" as="geometry"/>
                </mxCell>
                <mxCell id="AFIjvNQLvGPmOUvLb4RM-129" value="Tag Name" style="dashed=0;html=1;fillColor=#F0F2F5;strokeColor=none;align=center;rounded=1;arcSize=10;fontColor=#3384FF;fontStyle=1;fontSize=11;shadow=0" parent="AFIjvNQLvGPmOUvLb4RM-71" vertex="1">
                    <mxGeometry x="220.83555555555557" y="399.97005172413793" width="180.88888888888889" height="24.79525862068966" as="geometry"/>
                </mxCell>
                <mxCell id="AFIjvNQLvGPmOUvLb4RM-130" value="Tag Name" style="dashed=0;html=1;fillColor=#F0F2F5;strokeColor=none;align=center;rounded=1;arcSize=10;fontColor=#3384FF;fontStyle=1;fontSize=11;shadow=0" parent="AFIjvNQLvGPmOUvLb4RM-71" vertex="1">
                    <mxGeometry x="416.7985185185185" y="399.97005172413793" width="180.88888888888889" height="24.79525862068966" as="geometry"/>
                </mxCell>
                <mxCell id="AFIjvNQLvGPmOUvLb4RM-131" value="Tag Name" style="dashed=0;html=1;fillColor=#F0F2F5;strokeColor=none;align=center;rounded=1;arcSize=10;fontColor=#3384FF;fontStyle=1;fontSize=11;shadow=0" parent="AFIjvNQLvGPmOUvLb4RM-71" vertex="1">
                    <mxGeometry x="608.2385185185184" y="399.97005172413793" width="180.88888888888889" height="24.79525862068966" as="geometry"/>
                </mxCell>
                <mxCell id="AFIjvNQLvGPmOUvLb4RM-92" value="&lt;div style=&quot;text-align: left;&quot;&gt;&lt;u style=&quot;font-size: 12px; background-color: initial;&quot;&gt;Created by&lt;/u&gt;&lt;span style=&quot;font-size: 12px; background-color: initial;&quot;&gt;:&lt;/span&gt;&lt;span style=&quot;font-size: 12px; background-color: initial;&quot;&gt; Red Snapper&amp;nbsp; |&amp;nbsp;&amp;nbsp;&lt;/span&gt;&lt;u style=&quot;background-color: initial; font-size: 12px;&quot;&gt;Created&lt;/u&gt;&lt;span style=&quot;background-color: initial; font-size: 12px;&quot;&gt;:&lt;/span&gt;&lt;span style=&quot;background-color: initial; font-size: 12px;&quot;&gt; 23 Mar 23&amp;nbsp; |&amp;nbsp;&amp;nbsp;&lt;/span&gt;&lt;u style=&quot;font-size: 12px; background-color: initial;&quot;&gt;Modified&lt;/u&gt;&lt;span style=&quot;font-size: 12px; background-color: initial;&quot;&gt;: 23 Mar 23&lt;/span&gt;&lt;/div&gt;" style="strokeWidth=1;shadow=0;dashed=0;align=center;html=1;shape=mxgraph.mockup.containers.rrect;rSize=0;fontSize=17;fontColor=#ffffff;fontStyle=1;fillColor=#000000;strokeColor=#008cff;resizeWidth=1;" parent="AFIjvNQLvGPmOUvLb4RM-71" vertex="1">
                    <mxGeometry x="188.99999999999994" y="322.66666666666663" width="419.9999999999999" height="25.8125" as="geometry"/>
                </mxCell>
                <mxCell id="lM6tjRQ631AnlH_knAvs-1" value="" style="shape=image;verticalLabelPosition=bottom;labelBackgroundColor=default;verticalAlign=top;aspect=fixed;imageAspect=0;image=data:image/png,iVBORw0KGgoAAAANSUhEUgAAAy0AAAFkCAYAAAAt2NSLAAAAAXNSR0IArs4c6QAAAARnQU1BAACxjwv8YQUAAAAJcEhZcwAADsMAAA7DAcdvqGQAAKpZSURBVHhe7N0LQFRl3j/wrzkoo+BlRBQGAWVSEFFRwVuAgPcb4aXU8rZktq3ta7W22Xbb9F3b3H3rv1mbmVtpaTezi7a6ZuYVFlJUUBBBRRmUEcfLYIMy2v85M2dgGGZgBrGm+n52yTlnzvU5z/Oc53fOc840a9+5xw8gIiIiIiLyUHfI/xIREREREXkkBi1EREREROTRGLQQEREREZFHY9BCREREREQejUELERERERF5NAYtRERERETk0Ri0EBERERGRR2PQQkREREREHo1BCxEREREReTQGLURERERE5NEYtBARERERkUdj0EJERERERB6NQQsREREREXk0Bi1EREREROTRGLQQEREREZFHY9BCREREREQejUELERERERF5NAYtRERERETk0Ri0EBERERGRR2PQQkREREREHo1BCxEREREReTQGLURERERE5NEYtBARERERkUdj0EJERERERB6NQQsREREREXk0Bi1EREREROTRGLQQEREREZFHY9BCREREREQejUELERERERF5NAYtRERERETk0Ri0EBERERGRR2PQQkREREREHu0XH7T07tNT/vRrEyT2PUj+TERERET08+Vy0PLAq58iY8enePNBeYTVlKXYumMzMj5fiinyKKvfvS7PkyYNPYR3pen+9ZD5ux/DlH/twbdbPkX+v8bLYxrh0VfFPojtdvRXvc8/4r7J2/Puo/KwE0u2bBb7Lv6ekUfcot5pf8PWzEycLTyEs0e+xtZX70Nv+TsiIiIiotvJ5aBlm6kluof3RPzQ2gFA/MhBiAkPQ/fYQZiQII80m4sRyT3FPC1R+Y00HIQe0nR3NsXV//vwYaZoPBd+ipfkMY7o9Dpcu3YN5/Tl8phGCO4m9kFsd9cghHSx+wvoiHbmiZpy3xogb0+PYHnYiXMXDGLfDSgrk0fgGXwrBRyZK/GAPMZVIX/+FFuXjkdMQEtcPluCyy2DEDPlGXz+yVyEyNMQEREREd0uLgctxZ+dQLH41z9iFOIto4QgTImwNtRFIz5J/ihJ6IeQNuLfMyfwyUnLqKbTAi3btkTL1i3hLY9xZNcfJiEgtA+G/SFDHtN4BRv7IEBj9xc7H2/J33ua1+67S+z7Xbj3TXkERFqJ9DKnmzzGNYPwwpieYp5yfJnWB+Fx4xA+4q/YdQVoO3QKHu8qT0ZEREREvzoz7k01/91urj/TsnMrCnTi3wA1RljGCFPQI0D8oyuH9FWP/gvNYyUhd3czX4XX5W3FLsuoaiOeWYmMI9KdkkM4uXsllqTWvkPRO20pPtstd0UqzET+llfx+Ej5S/Mdg4WIlwIihGGqNM0WJ32gXvzUvIxvX5SHhZDZz9gt+294oI/8ZZMSAd0Tr+LbA/K6ju3Bt/96qDrtJry+2bz+rTabHvI3y/bmf2LTzSzhb8iQ5t9kv48JWPLJ1zgp70fG+3/EFJsA4oF3vxbjv8aHUte8tJXILpyA7tIXbQbhaTFP9rv3SUMWXe/DS59srl5W/o7axyTzm0345N3VWP0fecTJt3FaOuDoiGDbQJWIiIiIfjVWvLKs+u+Pjy+Qx94ebjyIvwm7jl8BFGGIfUIe9WBfdG8tApOD7+GQaMS2vLMvfid/db+5q9QV5O/dZBlh5T8Sbz44CO30JTh3rSXaahLwu+V/w+Py1yEPv4PPl05BfChw7kwJis9eR9s+I/Cn1z/An8yN8vMoPnMel03S52u4LE1Tel4aqKulfDfGemth2kpsffE+xHe5LpZhXfZ4vLRmJe6XJ2kqI15eiVcfHYHeKnldlb7oPWYh1uxeag5cvjx4HpWt26D3wJpA74G+Pc3b6x81qDodQ+6OEGncEudKt8ljLDqNXI7fDfBGmVj2ZbRB96S5eHWNZdmSlmLZ5r/mYuDyeejOGERqCaYr5nTVnb8sDYmAZS4+EwHRA0PDAHFMis9cQUvpmPzjA7w7TZogA689+Qc8+OTb1cFnSOrfECeOD66ewO7VlnFERERE9OshBSq2d1j++IcFtzVwcSNoAV7LPCEavi0REml5rmXKUA3amgOTNywBTZsgxJqfa5mLmDtFpCAatVnV3ZNkra5gm9zNKDpyEt7KF+NaR2CkHAjFdIJoOB/FJ2mxiE4ch0Fxd2HpXrHs1n0xYo40xRuYnfg+Dn0vfS7Bf6RpfvOGNNCgB+6Ohr/Yg6zX78IgedmLPjiIglMieKn1PE5dIQl2D+HX9zB8wlIsmRKGllcy8EyivK4+4/D3/SL1NFPwp6UioHtTrPeqbaC3ELFSICCpTkexzVEimBD7efj92l3c2iqOVi87XDPf3AWvpWYC/uBomz55GqMSvzV378P3R/GWmGfUHyzB5P1L0xCvuoaCD+aja6zYzsTh6Jq2DcUKP0x44Bm7Z1aCMOXFT/HtP8aL8eXY9X9/wN/lb4iIiIjo18E2YNmzLxOnz2jNn29n4OJW0IKXsnHMZH2uZRAmRPhVByaWgCYIPe4WDXLr8yynsvG/ljlrnDmI/7V2M8JRPHGwSPzbEm2lbmbCJ8/NwbDYSXhQmqZPAqZMuQ8hPpbvvM1dwhqvQC+CH7Gu3nevxJ/SEsxvv3rv0WkYlPIIXttpnsSplgFhlgfybf6cPgw/IRrdFYAu4xO8Vv08Twn+94tsSPc3eg+Suma9gl3510SAokG89AqyKREIaS228T87obOmozWQ0RXhS7vtK975hs2yd+LBbUfFvy3RfaBNt68G3YcpfaVjmIdde31FWo+3/LXZicNnxNehkbXvQE17Bktn90TbKwfx2u+n4e7XS+QviIiIiOjXwD5gmTh5FvrGJt/2wMW9oAXv4/Ap8Y/5uZYEhEiBhjUwkQOa7lEiyJCfZynIeV/6prYblZYr/s6M/CM+lJ45OZMP/ZaVePPVZ/BA5C1GK7JdDy/BW4euoGXXBDy+dCW+PZuPs0c248NnGrjNIhR8EA5VQO2/QU7utMS0svRHu6S36xr3ZgnML/Nq6Wse/N/9UsDmh5ChQYgfGQZ/6Y7KvzKQL2IrKR2t3e8uH8/AJ+Y5aly7avdyAe0Vc0DkrbQs2zW+UEqb2rovHnj1byKtrX9LMaGLNN4XnczTWUwZEym2ETj8yTQ8s5EBCxEREdGviRSM2AcsVrc7cHEzaCnBJ3misSo91/J+NHoobAMTOaAJjcZL5udZSnDsM3cbtoPw5vNzMULTEuf2vo//feQR3D1EBAifSI37prATT4yOhWr0fDzxj0+wLbMElW3CMOLh/8WH5uc3mkbWNfPTI2ipkNLBRkJb1Hpz1ztHUSD+6R411/IWtjN5eG/n28g6LuaX0nFAENriGgr2vm2Z3kadZYtjIamssqzbNddgvCH+ke6cPPIHPFjn76Xab0c7X4KC/IM4nCMPExEREdGvxnQnAYuVbeBinbapuBm0ALv+UwSdaHrHxPcV/7UNTOSApnUE4nuJprmDLk0NG4He0hX+k9swe9oS/P2Tbdh1Evhdl46Wr29JX4x49Bm8+epC3H9oJ95a9jTuTRmOB7dJv+Hih5CBlqmaxH9LzG9TC+m/0Ob10GLv7ouwvFHthHyX5OQmHDN3w5qACaFivPymNfMdGJGOUxNEYCJ13XrZPHUtIX0fqvXq6T+NjRYBDlB2pvYD+/XbhgJp/W38EHxlEz75xPpXjk4DBqFHy2vmuzdWn/zhBTyz7AX83v62DxERERH94i1YuBh//dsKhwGLlRS4SNNI0zYlt4MWfGLpvmS+sm8XmFgDmpYiZnHUpalh2SjWi3+6xmP50vvMz7P86V+b8YeB9t3Dtsmv3A3CyM9fxZuL7X+L35GD6D50gljmQ1iyZSkel57d+P3fsGSon/iuHMX/tUzVJD54G/+RnlfpOh5vbvkb/pRm2Y83J4gg5NpRfPy8tdtYBlYflAK9NmirsHnTmvkOTEu0dfZckEQEOu/ueBV/+v1CvPn5B1jQXyT61YP48h/O7m4V4Zx03Nr0xMz3/4aXHh4kBkrwxEcZIjAJwoRXN+PDpQ9hSppYntjmJbOnYMFc225zg/CPHevx4bufIvtVaV4iIiIi+jWR7rD89e8r5CHnpGmkaZuS+0EL5O5Lgu7gl7UDE2tAI3Vpyqzbpalhm/DEyp0ovtYGMWnSXZFn8HgS8OU2++5hJfj9a5tQcLUl/GNHYMo08Sd/U5/XFv0/fCI2sG2fKfiT9OzG4vHo3uoKDq/+E+79QJ6oSWTg9795ybwu/z7j8fhSsR9jwtBWfxRvPfp7PGPzY5uWQE+wfdOa9Q6M4PC5IKFg2ycoDhyBxxeLQCPWDy2viGUv+gP+12bZtb2N/1udAZ1Jej3yeDwwSQ5I3pyDB1/PQHHzMIyQAhYpcOnjh8v5m/DMvL/aPH9UgstSVzJxbOXeb0REREREP4pm7Tv3+EH+7EGCED+hL/xRjqwvRYNaHutIyNBBaLs3A4flYZd0HYQJ/aWG/gl88h/prVu3kbwunD2IL/e6+4xPQ+R0uubefvQWaXZZpJl9uvYeKYK4Nteg22/plldXEHr3AQ4faur9ICIiIiJyzkODFiIiIiIiIotGdA8jIiIiIiL68TBoISIiIiIij8aghYiIiIiIPBqDFiIiIiIi8mgMWoiIiIiIyKMxaCEiIiIiIo/GoIWIiIiIiDwagxYiIiIiIvJoDFqIiIiIiMijMWghIiIiIiKPxqCFiIiIiIg8GoMWIiIiIiLyaAxaiIiIiIjIozFoISIiIiIij8aghYiIiIiIPBqDFiIiIiIi8mgMWoiIiIiIyKMxaCEiIiIiIo/GoIWIiIiIiDwagxYiIiIiIvJoDFqIiIiIiMijMWghIiIiIiKPxqCFiIiIiIg8GoMWIiIiIiLyaM3ad+7xg/y5Xt0jesqfiIiIiIiIGqcg76j8yXUuBy1EREREREQ/BXYPIyIiIiIij8aghYiIiIiIPBqDFiIiIiIi8mgMWoiIiIiIyKMxaCEiIiIiIo/GoIWIiIiIiDwagxYiIiIiIvJoDFqIiIiIiMijMWghIiIiIiKPxqCFiIiIiIg8GoMWIiIiIiLyaAxaiIiIiIjIozFoISIiIiIij8aghYiIiIiIPBqDFiIiIiIi8mgMWoiIiIiIyKMxaCEiIiIiIo/GoIWIiIiIiDwagxYiIiIiIvJoDFqIiIiIiMijMWghIiIiIiKPxqCFiIiIiIg8GoMWIiIiIiLyaAxaiIiIiIjIozFoIaLbSAGlvxq+vgp5mIjox8Q6iOiXoln7zj1+kD83SDVsJlJ7eMtDtZ1KX4Xth8WHwDhMTQa2r90NveWr20LalmR8g4+/1cpjHPFB1D3ToSndgI17mnprbuey6ZdGkzIPISflMoIwxKfFAenvYddRkxiORPJ8DYpXfo5C6etfiraDMeN/xiKqhQlV5zKwbMVWGOWvqnUfhRlxCux9dzOKpaT4RbI/3vRL5tq5yRX25xg1YmcmSSdXZJZapqAGuFAHSXVzQmd5wJHv87HRlfaMfV3WOwVpXQux+vMjlu/d1pT1hnSO6QfDly7knc5i2hFJ6NddBV+RWrpTRdi59SvklNinnAKq3qOQnByJKJUSMOqRs/8rbNxahDpba7/MgkPY+PFWaCvl7x1QDp6MGaGl+Gh9OgzyuKZQ+1x8K6TyOBa+h5yd1+l2cOtOizIgBOHtqpB36nSdP621RPuooemqhsjCt5W0LZoAxwGULUXb9vD3tdmau+bghcdT4C8P3oo6yyZyQtUlDBo/eUBopfJHh5bygMiNGo0aKnnol8J/VDKiyr7C4qf/jGcdBSxmPvDvpHK7vohOew4LJ4XJQx5Ek4KFS+YgWh60qn28ySM10bnB1XOTK2qfY7yh7hoCtY88KBpJox9/DjPukgd/Kk14Tm1qrtRB+jO2bZkqqDSBUFywHXfeSd1lz64u81MjvMutpUrT1RvSOcY27zjme9c8PLtwCqJQgC/ffQuv/HMzMr/vhPG/ewJpSbZnKAVCpj+JxZNCoN+5QUwnpv3ioAjU5uDZBYkiMLHRcxoWi2WGXt6NddJ00jJFEDX/6YcRa3NOrEOhgqpDmyZvS9qfixtPKo/1ndfpdnC/e9jVYuzburXOX36J/L1HqUD2qpew8t82V7xatIKytRJe8mDjOVg2kUuKsGX5S9iY/cu+GuPVHLhyRScPOVEgTnh/WYt8N5PCS6mE0hNPDneI7fJuZVe//DqO989ek50bmkrD5xhpe31byAM/FY9Ltxqu1EH6A7ZtmWJcwQ3oDtuM253vWtDSyLrMuR+53vAbh9kpnZD33kt4Za1o0xVqoS89gsz1r2PZ2mPwH/kARgfJ07ZNxoQ+3+PLFa9j+4EiMZ2YNnc3Pn55A3L8kpA6WJ5OBHLxo/rCsPtVrBZBjVaaTlrm2n9gzfGOSK2ZsA7j7lVYLgLNBs4gHoT1/I+hudLH73n5c4PaRMVjUKsz2JZ5Sh7jQIdeiOsFHNqZW3NLr3MMRs+5H7MmDEdiXH8EeOuQV3QRN81f9sXUp6fCrzATxdUzhGH0ot8jodV+ZJ+4Lo8DNNOfwKzwC8g4Wm7elj7IRQaGYN4DM5AychgGRPrBcPo4dBWWJUukK7JJrXci5zTgP+kx/HFIILxadUCf+HgkdruOHdlytKXwR9Sk2Zg9fSxGJw1EZJAPtAVFMNST/2yXbVZrGXHo0605TuScwtWazalLSpv7pmHG3SORbF5vC5w6ajOPdBVrhBLfKQZi7px7qvdTfyIP5d/L0zhTZ3uUOJNns0/SVeG54ThxvA3ifiMfn8GRaFlZhMJSu2q6ofSRl3WmNBATHrwfU8ckIm5AV1Rpc3Hmcn0JYEsJ9aj7kXZfCsYOd7KfDe2T+erjXGjOp6PQ9n6+nI7W420+dj55UCTMx4NTR0JdJR/HBpcvNJQWDqhjhyPg/NfYf1Iast/GrhgwsiPO7SiG/32W7UmuU04E8z744pBPAubPScVYjTX/Suk2HbPvTcV4kT/iBnSHsuqUzTGU13f5CkLunYu5Ewai5Zl0lA18BE/GNcfOg3ZXHHpPw6JZPVC8L8/5bfl6y7S0vt8jtWtrtOnUG3HDRFltX4KMvIvmb2ux5sH0Y7gqDTeY3y3LHh3ghdbysgOsx07iYj49a9BgmlRvxLbDEXndCs0oTJ49GdPGWfapW0cTCo+WoqYGEurLH9K2T+6BNgoVesQPRUI/67Jtj7c/4v/nUQy9Yx9ySmqXC9v6zcw2jQf3hl+rCyiwzQ9OSPsxLW26uQyay/P1YhRqzakrq1vOHNabPifhOyINcyeJ/CiWc8fFXJzUB2LI3JpxtesK634egyJJ5DP5GHTvcB0F7qSjmbysC1r43y2vT8pnXlrknLgsTyNrKJ1cqEPrOzfUSU9H9aMN185NtnlCHiVxVE9Vn2NUiEiIAnJ3If/CYMxYMhX9WjeHX/BQxCX2N5fpWsuqxcVj3joHVbENHDsb9Z5TXV7nXpR1n4V590vTSXnBhfOmpKnqoFqkujgYVw9IaSyPsmroXG1fl3WNwciO5eb2ku8YUdcO/QE7D9n0zYqbhxfu744zu3Nrup61TUTa4hHwyjoAbZVdHnH5HKuAamAqZs225nUfEYRVoVuSk/2SaSbPQOz5L/HPbXbnA8n5XJxTD8fo0HLsPHweCIlBcg8D9vw7F7VK481zKDhUgMIzBlw3l+Uu6DeyBwz7RBAkZqtxE/pjOcg+XgJjpZMTp8Oy4EL+bKBuqf9cLLNbt8S2HogbEIwrJ86hXf++aH3aybJu6XjdROz/ONgu+hGClu6Tsfi3Q9F8/+dYtXYjdhXeRGhSKlJCyrAnVzo5l8On993o552BzONy1guMR+rwrgjxMtqsKwwJk/rjasYGHD0nnxja+COiJ7Dvw3ex4etDOKMajPtT++Hq4Sxo5ZNR8NAxCNFbMtXVkiIcahGMOJUW69/cgG05J+UCIzLbk/MxXHEI695ch03pJbjaXVQeY7ugcJ8olE4qT9tlS1cUon/7e4zFXrz91gfY9O1xXO05EQ8n+SIj/bjjSr9tHNIeHQt1yQ68/baYZ28xjD0nYO6QH5CRddrSL1QzBGN7RUKtOoUtb6/DZ7sLYAgbjrnJHXF0Vz2NSrFPE55agMTmB8z79NnuQlztOgyzxofghHWf/KKR2K8TgnqGwZT5Ed756BscquyCxAkTEVmVhezT1q12IX2kZQ2MQPfg68jYsAYf/ns/TrUbgHsm9sOl/Vk4d82ypPqo73kS88OKxDrew2f/yYDWPx6zU3rgzJ7D0JuPgQv7JE7sUSP6weuIXeUspWPgper8JB27WLHfPgVbsWbzPnGykyrZ2vtpXn6PsZg/JhAF1ctvXF6pXVHab6N0ouyMdkExCDr7b6xeuwn7ik3oNmoGJqhL5HIiSPvQOwLdfI9j47ot2CXnXyndFva7iR0b/4V1H+7Ed1f8kDR5Ijppd6HAvHxpfTHo170LLu/biA+//s7ciL1a1hFRk8OBHaK82Gx31MR7oTn7GbYcdZK7GizTBmiLCnCufSS6lX+Ff0jblKfF9esOEsecB72Qa60vGszvlmVXhQ5Ep5LPzMu2HDtpZlfzaS9EBBmw49PPsC1LNFyvinwu9umPaf1gypL26WNsP3AF7RJSkBos0v+ItaHTQP44dxqHLnZA38gq7Hz1fXx2UF52reN9FTq/AZjRs4VdPToY4+8LQfHGz1F4RQyK7Vn00FB4HZC2R+SHMzehGTEVE4LO1uQHB5SiIfT05CCc2b4e76zbhowLKpEXJiMah0Tekxraop763WLcL5azad275nKq9R2EaVP6w5hTu96M7RmIa//daKkXWvQRZXkwuve4E80Ob8QaadwPPZEiyvcPWZkoNpdvy36qAyMRcT0L7729AdvzriPgrvGYHG2qqdNcLscxiAoLQeV+sT5pX863weDxKYiyrZtcSScX6lCn5wYpX8wKRcFn/8KaD7/GvvN+GH5PKkIu7hXnIceF3bVzk22eMM9m4aCeqjnH2AYtF3Dq2EW07tUTpv1vYNUXB81l2uRwk1w/5tHhoehw8lu8K5XrAhO6JKdidOeTNmWgNufnVNfXqekUggF+WmxYLZXZMtE6HYO0EX71n9+asg6qxUnQ4sq52r4uswlart/RDUMSO+HcDnEuk74TokalYkBQW1wvtlnX0LGYoSrBhzuPi2Xa5REXz7G+SQ/h8VFtkf3pW1izYQ8KmvXDtMk90NKnOfROg5YwDJ3YG5f2fGhuXzmiP7TTErBILvuiW/JQRNxxBPtP2F4QEeFIpbU+lhjg1T0ZyXeKNuGBUzDaJr/J6DxgkTgoCw3nz4bP4fWfi2V265a6uP1xTg+Ub3sf/xJ1Uealzhg9YzACmrXGteqgpSmPl0iw1u1x0367qBHdw5q3gqrXYAwZNarmLy4cjvsd+iB+XIzl1uDWIzCIDGosTsfGl/8Dbe+J8q1GEzKPnkaIKOBWyugw+B49gsLOGogq2iKoLzReJ5CdLQ8LqlAvZIsAIae4AiaDDsVf/NN8y3H0mEh5CjtiGn3FDfGhynI786LlaplyzFgkX8vAy69tRbEYZ7pYhJy1r2PjpUikjlWbp2lYNPqF6rHzw3TopJC+Uoucd9/G6n313Fq+dgJ7P1qFV9bL8xhOI+f9vdCGRtXst+SOYmyXt808zbubkNkyQjQq5O8dkPYp3ri7ep/M863/Bzaej8Q9d9vsk28Aqv4rxqefFhVIBXTpH+CVzeJ4JI6HdSqX08f7Mg68YzkeqNSL4/E2vr4YjNgYV97aEiYa1c2Rs22zZXtNFeb5V28+UF3Ju7xPrjq51ZwvpbxgqKy7n5a0fh1fXuqBoXL2bJq84oga6u83yOXECENhOj5+YzcMfUYgvq08iVkxNknrrs6/CugPb8KKFa9jX65elCYxb+5mfJkH9Opv+8yHEvrsN8Vxlm7l62CUzhWXd+JwqTg+I2w6OisGI7qbATkZzrqkuFamjTqxfaJdWXVdb0nfmkvoDas3v1uWbRDFuHrZ8sOcrudTPf4r1RtS9wedyKuSs0ew8T3rPom1XDyC7VuPwSs8xmk5qJM/RJ7XX64StcsNGKTjY122HeOeIygO6lX7uN4lAilDEQ6YL+xZ0ti4x7o94phK+eG1b6CPFNsQaJ7DgUiMF1/mfCqXZ9EokPLCig1H0KZPnOWZg96pmNCxAGtetimnW1/HG4d8kDq5dleNquNf4WNrvbB1Db4u94fqwlc1dcW3onyfVSOivzyDmQ9CTelynSYaJea88RUKAxIwurtlCtfLsVJs/9u19mV1+kWE97OeK9xIp4bqUCfnBv++EfAq+AbbzWVL5L18sQ3vfYXss+avnXL73OQ2sa+l0jaJLa4Q22st0464ccy9ir+pVa4/3nwESlEGQuTv63CSbu6sM6StHu9Wl9kj2PfaW9heFYPxSc7OGz9CHWTP1XO1MwVZyK8KQZRcBqQeJuHBF5GZK9rHEdY8r0D0nQEozt/pvM3Q4Dk2EqPjO4o64J+WPCvOo7r0tViRXSGa1PUJRmBbA8pOyIMNEWV8zaoMIOERLHv6EUydNBgh/o4emDEh5+1V+BrxWLTkaSyYmYKoXv5QNvJFbg3lT1fO4e4T+U3q4rbnLUt9KNdFKz8qhaLWwzsONPp4eSGioWX/SrkftLTvgdSh4gQbGmzz19FJ0BKNOwN1OGz/di2R4bNP+CKqv1xY9xejWG0NUBSI6uqLnIPrkX0uEOHyE60q0QBTnS6s/Xalc3nIrHVv0oTCwyegCAl366HA8G5qFB7aandVp0IEU2ehDq6uZRpwAqd0aiTcOxiq6mcwtcgXjUSnVaUIbPIPW/u1CAof+Iar0EYerFZeYvdWqVxoy33gX88bT6R9kiq/2vtkQrZYnypsQE0FZjqN7D12W5iehRyvYETJJ32X08dwHkW1jocIPM6KyrKjtUpRI9w22K0V8Bbh+Flx7EeMQ0j1qynF/FkiqJA3z+V9clGZtvZbXRzvpx67VvwZ69ItQ02TVxypQP6hIvmzrFwEFefVuLO3PCypkxekhtRBFNtcfFe0D0Mn3+bykFUFtEWi4qylAln5WoSED60pv4NE2S4/gp0OeghYuFimb0Uj8ruk8flUMOQjX5w0qnmroO7sK2qjGq7kD5dc3ovDZWr0HmI9yYvGSmQwtGLZlv7bUhprcWCrXRpf3iHqRH9owuVhe+ILzc1jyLTvU539AZa//Ll52f7hIVCczEGh3SS6fcegD+1VqwGmL7PNjxWovGY/TjTjpfZqLVXIO2yXGCJv7DvevLpx5no5rptnjSdLYWjbSQ4k3UinRuYp3ckSKHokITm8pkFmzM9C4TmntbpFE52bmoI7x9y+TkROCbS+KnSSB13lzjp1RzLsnlvQYmeuDqFhzlqZP0IdZM/Vc7VTRaLhWlMG0F2U1UvHsCm9EApNX7n+jUFUqAGFIsBwqqFzbPcoh3WAcVcebO/rOlaJSvt6sT7FouH+zF/wl8++g6H1AMx49GksX/IIRveyaw2KNoZURz7z0kbsvNoGCXc/gheWPocFUyJr1a+uaCh/NlkdXUsMIhzVMwUHkV97RXXd1uP16+R+0FKejdUrV9X+c/Y6wO5q+FeeR6mDgqCvuAZFK7l1f/kgCi/JAYoiBuF+pcgXBzHnpEGceKSrxT7opfFFXl6WeXIrvc6mErG6WgVja3cq2TCEdhDn+1FLsXz5i7X/xgTL07hCi+1vb0C+aiQWLXkRy559DGnT46Cu9yUyCvjHTcP8p57DshfFPM8tRNrQQBcKsqPGgi1pn4woK3VQ+V0w4EpLZU0j1WhwcOwMMFW1gNJ8nr619DHVeqG2N7zqeXg6/91V2PJ9JB7601IsW/oEFswcB01na2q4sU+NIi2/ArrS+hojTZVXHNFDe1T+WM3SUFSpGjgJ+0UiOe0xPLt0CZYvW4JnfzsWUe3k7xpg3PYdcjp0R4z5qr/ceD5az5U+V8t0k2oov0tu9dioEDJxDhY+u0SUxSV44U8PIDWivfydxJX84aoK7MoqEg07OVgUdV5UF6kRJudtKY1Fszx1md1+iL+pTi95C8GdoLpchmJ50JFQfx/oyms3381Kr+CKwusWy5DkGgwOujMYr9+Q88YtlmOR/FXyx0ank5kreUrIeg8rvq1Ev/tFg0yUrUWPzkRy74bDjqY5NzWNWzrmjczu7qzziqHuXV2jsRKKlk7qkp+kDmrsubpGYUEpVHKA4t87GKbCgzAW5KPQNwRR0oKiNdBId1vdfJ11rXNskMpxHWA6C129DeyL0FeqoHb7upt01yEdW9a+imWLn8ayTZcQff/jmOBgOdJdtJxP12LF0mew6JWvUBY+E4vuucU3QNbKn01ZR9voLupVEXxo6yy2EGXuBHmypjlev17uBy3uOFEGvbevwyvgimbyBzMtMvONiOrdVwS1vaARlV2OGGvMLoLpzhioxUk9ouNZ5GfUzjVtfJycPBw2xJ0pNme8/C+exKJFDv5W7JCnc0F5Fja+/GcsXvRn/GXdNzilSsLCP0yu7l5iT5n0IB5NVomC/HcsfvJJLH5mKV5ZafNQXqNJ+6SEyrbNZSUqx1pvefFydNKynaIJ00e62vSFzVtZ7N/MYjqNfStfEmnxNF74h/RaxB6YteBBRJsb1G7sU6NIy2/oymtTpoU9H6icdPtxdFKvEYbUh6ehnzHdcjJY/Aye/cur2HLalRaZYMpCzhl/9L5LRKiKOMR2PYvMbfVc6XO5TP/Ybu3YqKc/jIciKrH9X38R+U+k4TMvYcW20zbBmyv5ww0ZuSj0j7QEi/HRiLpQgCzrCVBKY5zGOkf7If5WfiNPZ++c3uYuhGNl+gr4tnHQbHan9VWv5lC0lj/aqMkbTViOG5tObjFB9/UqLH9aLFOUq4+ygah7HkFanKOuMDWa5tzUNG7/Ma/LnXV6Wa6O1XaH/Z1iGz9BHdQk5+r0XOT59RBlXo1+YS1QmCfV6weRrw1AdLwC6vAQGE8evLW3ZTmtAzpCVW93o1wUl/lA09t57SH9/tCsifV1bzRB/9+1WHfYvmuyA+ey8PGnB2Hb/fbWNXEdbSXlN4d3G0PQ4Va7cDk9XgHwZ/cwh25v0CIaoTpDR2jqPNOgRkRoS2hP1XQ10OeJBkJIOOK7B0J3Ur6jUipO7AhG1AgN1GWiwWsX6SrUGmjkz1a+4YFQ6ctEGOQqE4p1FVCHOiiM3vVeg6pNul1c3afTCEPhQWx/7XNLv2knVy9CugbgyjHRcM+3aSS2tX9damPI+xRS9/a6f89gKM8W16SPdwA01tcYWgVFQqMsQ2GBNNBE6dMgJXwDVfI5TeqPLL0W8U1L/09zn3nX98l0s27DSals6OqbZfmhd9q/glGB8EnzkGzuonU700IFTR+7k7cI1jWdKqBz2lVL8A9HiO9Z7FyXDr3ND3UpW9Rz0q/F0i1H3SsZ6hG9oD6Zjcz6LlS5UaZ/XLdybPwRHuSDU1kf1P4Btda2Ab0r+cMN5q4s7TFwWBji+wQgJ2t7reDdnMZ1lqmAwruelmZBGcp8RX1ZpzwnYurMOHMjr1icJFWB4bV/R0EySIPQcq1dF6rGUCI0zP4UbJs3XC/HDWpsOrlB0V4NX2vVIT2b8u1arJSeq+lTfwd5V85Njaun3Hf7j3ld7qxTHWT/VIgC0WH+0J0xn4Dq+gnqoKY5V2eJAMUfEXf1hcanGDny7uUUnYU6LBlRwc1ReOQWt91cBwQirNZzkELvUAcNY1smZO4vgm/fsZa7PvYU4UiIFw0Z/THzoCrlCSz/n0TzZ3te0numrdfMAlOwaPkjGOJomS29oLgpPQPYVBpXRzdYDuX8FmL/41ttNQixT2d3FRTjlNJBnX2XKCfyR6rt9gYtKMLXe84jfNR0hFf/AI8SmhlzkXyHaNTb9jGUHlRDJIbfaajpJmHuB6oUhSUYuoK9Nlc9LYymAIyfYdMvsnMiZsT6InPvbnmEAyV66L28Uf3YhKDdJr1yMRVTY2yu3fjFYOofnkJanIuN0dZDMfuxhzE6pGbBil5R0CjKcMrJw226cgPa+AfXVOwKfwy5f4Dzhx7dIO2TttuoWvuk6DUNaQNaYN9Om4SvbIGou8fB37rZimAk39sXiuxvzHe7JE2SPg3qhtEPPoIZg23W0XkoIvz0KJYrd9f2qQh5xUDsuGnQyPWOQjMOM2IcXdqtTVr+qaBkTB1Yc5VU0WsKUmO9USXfv719aVEB356zMKS6O5woJ/eMQvSlbHzt5NxtphP52aSCuqdtvpuG1Ag3tiU9Cwd8ojCrv784adbuglmXG2X6NtJeqIDS2+YYCI0/NjroLlVB1dnmIQjvSKSOibQJWlzLH5ar/6J+ceHHy3L+WwBln+kY2uE0cmrdRbakcdTEmTZpLBq9MdOx6OkHEe3gToaZaTe2HGiBIVPH1XRLleqUu5MQIbbKfFV41zfYpxyA2eNsusyJenP+6GAU7tveBHcBjFCEpSC5uh5UwH/ivRhikzdcK8euaGQ6OePg3BA6/gE8OnNwrTo6WtMeunP1FUpXzk2Nr6dqiABPHDClT+1yUMftPuYO0s2ddV7pFC32u2YffGPux+guZ/H1t87C1x+/Dmqac7XlpUPqwYOgKsypCdz2F0PX7S4k+JxA9q3+SruoA7bn+mL4zESorMdDqstGBKCqnl+fN0tfj41nAjHr6XmIDbKp+TrHIPXR+xCt/wYb5edf9Xull4kkYf5w2zuK0qt7Z2JqhBHZ++Tgq3Q3/ntOjdEP2WyPRCxz6rhIGHLsn2e6NS7V0bW4Ug5FfttvqDWN5fhHwvdWu3CZ0rE9uwWS58wUgYuU5goow8dh/sBOkF4iSXXZZqPbwvDNm1jt+1vMfnwJFCaR4ZuJVV48gtVvbLC7oiYFKCbRaCtCrrWbhCA9vFjVK8Dhw2nGov9gU7NxWLJ0Cqp+UMBLYcKpPW/jY/sHUW0V/AdbTj2MtKVLYCzLwCsvb4a+fAdWrm+DBdMfxbIUk2VZXiaUffcBVuy2D5WcuLwV724KwIKHnsMQaT9F0nrhIjI/fQfONke/+Qvs/J978eyyJHGSM8Gr2Q3kbPkOhaFNELY42idpeza8ji9tz7dVhfjyYEekPb8Eyh/ENngpceX451jxkc0Vn6ZInwYdwccfabBQWsdYsQ4p/RTXULh9DbZY7zS4uE+F6z/EdpGu85e8CNO1KpEJC/DugbMIb+jRhurlP4JlE+TlKww4sOEt7LLmyduWFnps/7AI0b97DqPFyU0qJ15iu1ev3mz3UKG9dGzc3AMLZi3FsiojqsR8povf4evDFUiQp2jYQWQXpCC2ewE+tn8pgwOul+nbR7ttO/IfnozlSyeiOPMNrPhCrPkWjk3Oxq8Q9fAcsTwjjHK+2rnzIPRD5AkkruQPKXDYE420PyxBQmURPn7+nergv47DB5A3KRL9irfXqSMcpbHyh4vY/sE/kV37DaM2TChe/zo2pj2MBc8NQpU0n0LkB20G3lgvP8BqysfGN/6DGQ/Nw7LB1n2QytkqrN5dT7dAl91A/jfZ6DT7OSwTaV/VTAnl9Xyse90mb7hYjl3RuHRywsG5QapLMkVd8tTSkWI7xTQiPY2nvsHqz+rP6a6cmxpdT1UTjeBv0jFk+hNYFmtEzmYnDxvf7mPu6Jzqxjr1+76BPl6UqRTpeSX5+K37B7Jt2gH2fuw6qMnO1VKAMiYAVwoOyiME6S2O5XFQX7F70VCjmFD4/tv4+qG5WLQkyVwHeDUzYt+6L5A/ZYo8jTMVyF75EgwT52KqOA9NvSHqQhEMKhVGFB/6Aq98nFVzLirfjDfe9cZD9z6G5clV5jSBVNZ/0GL7e6/WnLPFeW3Xa2vR6rdTsFhKu0op/4tjLOqG4u/W4uXPm/houVJH23GlHBo2v4PVqgeQ9twSS73aDCj+5lVs7/kE7G/AuEv70d/xyqh7MfU3T2FGC1F3XDiCj97di4Q/DpWnIFvN2nfuUetR6dvG3H2qrTj6Zbf26kFHfP3N/TWNunpe+2jPWwVfUaCsr0u1kroDtFGKQujOsmqxdHPyMl12+spTe7e+zvqICsK/k9gqB9vTfRoWTwPWvPABtC4en9u7rRJ5e0VFeUV+pWdd9eyTLbFPSkWFqCjlYZe5sg23Ky3k/GPU17w+1BXy8XN7Ppn/lCfwkHIzXlhr93aW+tzOMu0iRXuVaKzUPUaNOzauHXeXppPSRlnZBOnifn1iJuo3lUqJqnqOjSWNGtpXd4Qh9dnpwAdLsbHAlTLqYjl2SSPTyRFH5wbzOcYLVfqaV2y7xJVzU6PrKSuRju29YbzY8H43/TG3Ue851fE6Yxe8iOijluePGrVtP3Id1Lh65SfSmHaRDfO+ejVcnixpIj40dO6R6yQx4e3Jf7W4WpfbcKUcWutVd+sBtyVi/vIYFL/8Era4+WKGX7ofL2ghz2MbtMij6FdI0RdTn04BPv0zPr7V7gn0K2YbtMijiOphG7QQ/fr4I3reFATtfRNfHrUJraJn4llxSl73/Nrb8szZz9ltfqaFiDxXDKYuegwLn5uMiDP/wSYGLERERD8SHQrzqhA9609YNH8akkeNQ+r8J/DCvd1w6uvNDFgc4J2WXzPp1roKMNxy1wz6WZK7VjRJlxoic5cMUaHofwZdZ8gjSF2LlMbb3dWGyMN5qxE+qBdU0u/YXStDfsbBWm8DpRoMWoiIiIiIyKOxexgREREREXk0Bi1EREREROTRGLQQEREREZFHY9BCREREREQejUELERERERF5NAYtRERERETk0Ri0EBERERGRR3MraFENm4mpw9TyENmT0ictJVIe+gn1TkHazDio5EFqjEgkz5+J2EB50BWBcZj6M053lm+BZYeIiMgjuRW0KANCoAnwlodukSYFC5fMQbQ8WO2uOXjh8RT4y4M/J1L6hHfxgC33UyO8qxpKeZAawx8aTQjUPvKgK3zU0PyM071Jy/fPFcsOERGRR/rpuofdoYTSuxW85MFqLVpB2VpZdzwREREREf0qNVf6+D0vf25Qm6h49EEuMjAE8x6YgZSRwzAg0g+G08ehq7gpTxWG0Y/PheZ8Ogr18iiJdAdlhBI7skssnyf3QBuFCj3ihyKhXzscST+G1pMewx+HBMKrVQf0iY9HYrfrlunNlFCPuh9p96Vg7PB61ntBC/+70zB30kgkx/VHgJcWOScuy9NYKDSjMC1tOqaOSUTi4Ei0rCxCYalR/tZF3mEYMntu9Xr8bhbhbJv+iG11BtsyT5kniU57Dkk+eVAkzMeDU0dCXbUTOaelbxraF3ne1ntR1n0W5t0vTReHPt2a40TOKVytmUzsjD+iJs3G7OljMTppILr7XsKh66EYHmxExs5cGOTJak8nLUuJM3lFMJikL/0R/z+PIvbmLhwtNU8tKBA97xnM7FGOfbnn5XFiy4c/jKeSvbH3wGnclI/pd4qBmDvnnur8oD+Rh/Lv5RkknWMwes79mDVhOBKdHJP6yce20gTNFMty4gYE48qJozjn3R+jf2Md1xVV2lycuWybQA2ntbSvqoGpmDXbug8+0B2uQrekYFw9sAv5F6yTSWk4AzOmTLAsq28wcPZozfo69EJcL+CQTbrfcl5zJ43vm4YZd4v8KPJBZFALnDpqzSt9MfXpqQg4kYmTV8xTy3ww5HeLkdg6E4dOmVws30JD6SDdRZ0bjrMGDaZJy4m1lO+r0qxNUPakZUyePRnTxlnyU7eOJhSKjHtd/t7lNHO17NRye/Oia3WGKL/dO+Kq1j4fExER/XK5H7S08UdET2Dfh+9iw9eHcEY1GPen9sPVw1nQmhsEKkSN6AevIzaNPYlmCMYGXrI06HWncehiB/SNrMLOV9/HZwdFY+LqdVwtKcKhFsGIU2mx/s0N2JZzEkbROJAaV9GicXV/0FlsWvcuPvz3fmh9B2HalP4w5tiuNwZRYSGo3L8Ra9ZtQ8b5Nhg8PgVRVVnIPi03abpPxh9nhaLgs39hzYdfY995Pwy/JxUhF/fi6DkXGwCKcKQ+MQt99TuwevUH2PLdJXQafT8SOog0qqoJWoKHjkFszzD4FGzFms37kFdkwHWTK/timVfTKQQD/LTYsHodNqWXiRbNGKSN8MPRXXlyg0qF2Id/h9S2eXjvjffw2e6TuN53EqaFtxAB4WWbhlcYJjy1AInND2Ddm+vEdIW42nUYZo0PwYl9ubh88ypM3eIxtvMV7Dh0zjwHMBAjJ/VCt3Y/4Gj1chToNzYVqjMfIeO4SE/pmPaKhFp1ClvelpZbAEPYcMxN7lizjW3jkLYwGdj1Pv617gvsOC4OwfiZSPI9gMzjrjZWLce2X1gHnNr6LtZ8nomzQSMwe0RPdAtX48w3a7BOGuc/GKmjuuHMt4dhiZddS2vfpIfw+Ki2yP70LazZsAcFzfphmgiqW/o0h746aBHL+u1jmOxfYlnWlyIo/yECqfcOEYFNFs5dE5PYBy1NkddcTeNHx0JdsgNvv/0BNu0thrHnBMwd8gMysk7DhHO43nUMRgaVYE/uRfNizQLHYNqIm8h497+QNse18u1COvhFI3FgL0QEGbDj08+wLctSvpskPaRlpPWDKetzrFr7MbYfuIJ2CSlIDRb7dkTeN1fSzOWyY+/25kWndcb8Rbg/uMw874avD0PrJ47L3eK42MxLRET0S+Z29zBVqBey3/oAOcUVMBl0KP7in1hzvCNGj3HjAfRKPfSXq1CFGzCUaqHXVVjGi+XpK26ID1XQS+Mvyo3a3qmY0LEAa162rFeav3jr63jjkA9SJw+2TGOmhCH3bWxMPw2jySg+b8bq9IsI7xcjfw/4942AV8E32J6rF405E4z5Ypr3vkL2WXkCFyhHjMAQYwbeWJsOnUEs5eIRbP9/61Hc0sEDECe3YvXWI+b9MVSKYZf3BQhpq8e7r21FsUgHaR37XnsL26tiMD5JYZmg9ziM9juBNa9tNk8Dw2nkrH0d+676Wr6XKceMRbxxN16Wl2Webv0/sPF8JO652/LgtXZ/IYwh4ah+DDtaA41YZyaCEWV9GF0Rg3C1Dof3yMdLckcxttsu991NyGwZIRpe8ve9oxBeniUfE8BUko6P3/kAO4+5GrBYKVGW8U/LcRNplr9OrMcrWEQIb2Kfddwn4jjeDEFUd3kWl9I6EqPjOyLnU3nZpgro0tdiRXaFaJ7auoHi9A+wwros83TrsbM8GLH95UnsNEVeM2soja+dwN6PVuGV9Zb8aJ7m/b3QhkYhSp6kMPsEvHoMgUYelvgP6QHVqVxkm++2WTRcvl1MB289/istp7CmfDdJepw9go3vvWouU1J5Mpe9rcfgFR5Tk3clDeZL18qOY7crL8oc1RkBYlvleS3H5VWsPKrC+JSauo2IiOiXzP1nWs7lIbNWzx4TCg+fgEI0eG/XI+j+4SFQnMxBoU3jSqLbdwz60F7VDTOgAtoiSwPJyniyFIa2naobNLqTJVD0SEJyeE2AYczPQuE5u4XXIypMjcJDW+2uxBbhQGHtdUvKtEfkTxau74sYdyQDOvmzhRY7c3UIDbM0VNSRIUCB2PZay6pAZn7tucK7qVGcv9Nue03IPnwaqrABlsZ5QT4KRcPLGqCoxXbq8jdi3/EW0ETLaRXTCxGXipBre/zLS1Aof7TIhbbcB/6d5cGiYmgDYpA6WA051AJKDorGrLtBi2gcl9juqAGmKvtxVfK/Fi6ldfcoaG4eQ6Zty10w7sqD5X6ZlRH6A0egq55MAaV/D3So57n1pshrZg2lcaUW+eJYVlP4wDdchTbyoNnhA8hDN0T3lodFiejXXYkDmenysKzB8u1iOhjOo8iuB2CTpIchH/kiMKjmrYK6s29N3rJqIM1cLTuO3aa8KHNUZ9TdVvlCgzqsdrBGRET0C+V20KLX2TSOrK5WwdhahU7yYFML9feBrrx2E8Ss9AquKLxQ75t+xIm+VvMh6z2s+LYS/e5/GsuXLcGiR2ciubc74ZZoJKhEA6XUrgUhFOsafk7DnX25YtDKn2oYjZVQtLS0ENUdfFCmc7Ss8zYBShhCOxhRVlo3oMIFA660VMrrPIj8075ygKJGVNfrKMwWQWB+MVRdLUGSpnsg9EXfyd1dnDHBJN0ssyrdjNUbCtFp1ENY9uISPLtoHlKHhdVtZN4GLqV1kAqqy2UoNn9hw3QWOvv+QSFxSF3wBF5Y+iKWL/0TFs0egpCW8neO3HJec8YujUVq+sdNw/ynnhNp/CKWPbcQaUMD7dL4iAh4jYjoI98xCRqEqBYnkJ1tGbRyqXy7mw5WTZIeKoRMnIOFzy4x56cX/vQAUiPay9/Vp3aauVZ2ms6t1GHSvL7Rc7B8uUhv2795fe3uBhIREf1yuR20tPFx0sgwGhpozDZemb4Cvm0chESNavmaoPt6FZY//SQW/eVVfCQabVH3PIK0uJqrv/UrRtllm6vcNvxVbeVPzrmzL15KB9t0R3P5g2VZqo4h8pCNDirUdHKRtlcJlaN2nVin7VvacnJPQx2eAGXgAEQpTiNHeig/uxCnOkcgVhGGqJAbKDxcN5BqiCHrA6x4/hksev5lrN5eCtWweVh0T5j87e3jUlqf09e6E1ejI1S2PYXaJmL+Q0nwP/4Flj0v8s7Tf8YLy1chs95Mf6t5zTXKpAfxaLIKOZ/+HYuffBKLn1mKV1bm1imPuowiGLv3M3cRU8dFQFl0wO5uhAvlu1HpYHXr6aGe/jAeiqjE9n/9RezrM3j2mZewYttpuHvfzrWy03RupQ6T5tVnrcKiRSLd7P9e+ADul0giIqKfH7eDFoVaU6tfvMQ3PBAqfVn1ydN0szkUreUBmVLZ+N9/KBYNS1VgeN3GxCANQsu1dRpe9VG0V8PXuilS3/Bv12Kl9NxLH1f7hptQrKuAuktfedjKB+Eu/KiHO/uiDrLtNCJRIDrMH7ozBeYh67Lsr9JqQjvKnyTy9obU3T//nsFQni2uafRkiQBFNORiBoTBtzhfHp+F/HMBCB/RC5o7ipFjWbXrfP3h6yu3zCr10B7YjNWfH4HS/hmE28CltC4oQ5lvIMLs483eobW3r3sI1MZj2LQ13/xsjoUPvOu5w3Drec01IV0DcOXYVuzLt7mb1tbB68RLMpBT0R1DBkdiSI/ryNxRuxuSpMHy3Yh0sLr19PBHeJAPTokgOKfEJkxp3cDdVgdcKztN51bqMPO84rjU2UdvpSsxDxER0S+C20GL0RSA8TMia06WnRMxI9YXmXt3yyOKkFcMxI6bBo3cQFFoxmFGjN2l/hNl0MMbvn7ysFWJHnovMd72bLzrG+xTDsDsccHyCEGsd/7oYBTu2+7WHZ7Q8Q/g0ZmDaxoPCn9Ea9pDd87aGlcjduY8JFf3/a9Luy0buojxSO1lbUYooBo+C/1aO+iCZc+NfbnSKVqkW00HEN+Y+zG6y1l8/a0cZuzah0zfQZg1vObquKLXNIzvcqPWlWfttr3QdhuFqTbLkqZLG9AC+3baPNNg2o3skgAMF8cz5/BB60jknLyIiPgB8JX65MtjXaW86148+/A4+FcfTyU0vULgVWYTLN2uXyF3Ja3FPm/P9cXwmYlQWbfROxKpIwJQJT0EbaW9CIOyI0Kq86vlmA93cMfNquG8JhrJKfNu+VfodeUGtPEPrrWeIfcPQN37CFrsPKyDJjkVEdeLcMD6NnEbDZbvRqSD1a2nhw66S1VQdQ6XhwXpWI2JdDtocbXsNJlbqcOkeVsPQprtvIpgxP/2KZs7lgr4D5+J1LvYYYyIiH6Z3H7lceTFf+OzZmPw+L3DkZA4HCOHdMGlfW9jza6aV6nqj5ahef8ETJ04BkkJCUgK+x5f5lxHv7bl1a8Dxs0SlLcaiNR7xyLxrhCUf3vQ8tD5hVJc7ZaM2VNHIC6qFQ5lHIfxZjnyj16HZsI0zBgZL683EOU73sbqb62/IaJCREIUkGv3qmW719BK26ZMSMHMccPEcoYhcfhgqMu/wdvrD8u/aRGGIVP7odl3u1DgrCXx/XHkXQ7ByHvvxoRhYnuSkzCgZRZez/ZBQseafVTHDkfA+a+x/6R50MKlfbHM2y57I84N/I1orIhtTRqO4T2aYd/617GnRH497M1zOHqyFQZMmowpyZZlDQ8rxXufXTa/trb61bvfn8L+svZImjIZqdbpennh0Ger8HmObRPtJvQdozEy9AK2v3eg+iUAJp1I22FBOLtnPQ7ZNnS7xmCkzf5a2e63qbAQ5eHj8cCUEUgQaZWYnIA+zY/hvfVbqn8zQzlgHKZ2KsUXWQ6epzBzdGxdGOdSWot9PnISNwbcjdkpIk+LbRyZ0BXFG7+APlwkonVZhiJofYbgHim/Jkj7kYQ+P+zGvqvhUFmPsdt5zQe9xt+NwJKNyHa26y6ksbHoAryGjMPcicMRJ21/Yj9c33sAV8Pb4dy2rJrgUDCdb4/IkT2A/Z9i27HaT2+4VL4bkQ5WTZEeutOVCB41DbNGDEWctH3xatHoP452XWzW50KauVx26ridedHVOmMYRo4Ygk5nt2DlBwdF/ShNFIBBk8cjsctN7BfpcVsCLyIiop9Qs/ade/wgf3aPr7+5z79Rp7PpJmJH4QOlogJG2yvW9qQ3HSkrYbD8ymENb6lvud7yyk8bUheTNkojrpRKr029Bebt90KVXn6tqFXbcVjwZCB2Ll6FHHmUc0r4BqrgZdTXvJ7ZDfXtS+yCFxF99Ems/MaVfZbe4NRJbM3lmtdHO+TqdLeBOJ4qlRJVhrI6x1oz+zmkXnoLyz+3bV43LZfyjSt5up79cMpZXpN+9HHJSBj++RK2VP+oZ+NZ9rGq/u13VUNp0Zh0sLrl9JDzsaIJ6oGfoEzcUh3mNO2IiIh+2RoftPxSRc/Es0NL8MKKHfKIn4Zt0PLL5oP4xxeiw5dLsdHd52V+7qQA+X98sZEPU1swPYiIiMgJ93+n5RfOt3M7aPOz5CG6/TTohEL3H/D/JQhTQXE8hw10K6YHEREROcE7LR5K6kKiNLILCBERERER77R4KNNFBixERERERBIGLURERERE5NEYtBARERERkUdj0EJERERERB6NQQsREREREXk0Bi1EREREROTRGLQQEREREZFHY9BCREREREQejUELERERERF5NAYtRERERETk0Ri0EBERERGRR2PQQkREREREHo1BCxEREREReTQGLURERERE5NEYtBARERERkUdj0EJEREREggJKfzV8fRXyMJHnaK708Xte/uy6zpFITp2GKVPHYHTSQER26wzj+VPQXTHJEwiBcZh6dwjOHT4NozzqtuqdgrRBCmQfOy+P+DlRI3bm3VCXH4bWII9yQDl4MmbHtUNhbgmuy+N+Mt1HYcbd4biScxyXb8rjHFANm4kZfW541nH5WeQV1/IE/fo0j1iLTqF+qCg9II/5sYn6f/5odDz7C8ubUr0w0h/FP9Y5y4YmZR6iWx7AyTJ5RJMJQ3xaCkKu5aL4fD0VtYdrmvT5ZaTFbdV2MGb8cR7uGdIXgzQtkJFZBJtW3S+MD6LumY2h7U8h/3R9JZ7nYk/i9p0W37vm4dmFUxCFAnz57lt45Z+bkfl9J4z/3RNIS1LJUwk+ami6qqGUB287PzXCu/jLAz+Bu+bghcdT0OAWaFKwcMkcRMuDFt5Qdw2B2kcedEahgqpDmx8vTevlA/9Oqga3RRkQ0jTHxdX0dcVPnVdc4mKe+BFFpz2HhZPC5CEP0mEFuqR9gFby4K1oNSITXQZOk4eaRlMvs5lfKPwD1fLQT8EfGs2t582mz09hGP34c5hxlzzoLqle+DHPWTZUXcKg8ZMHmlgrlT86tJQHfqaaKn3s08Jj67SfiP+oZESVfYXFT/8Zz67Y2nTBu8N2z09P0bY9/H1tSrzDdobnnYt/zdwLWvzGYXZKJ+S99xJeWbsV+YVa6EuPIHP961i29hj8Rz6A0UHytL82LVpB2VoJL3nQqTuUUHq3ang6B4y7V2G5qEh08vBPqmADXvnLWuT/WJdhXE1fum28lCLvemLjp3lLKLybaMPEDipatJAHmsjtWOYvwO3IT1Id4cuktlGELctfwsbsX+71ctfVTQuPrdN+Il7NgStXbkML4xbaPbdPBbJXvYSV/9bKwwLbGR7Pre5hmskzEHv+S/xzW4k8xsb5XJxTD8fo0HLsPHwe6NALcb2AI6c6YtyD92PqmETEDeiKKt0xnNHbVaCdYzB6zv2YNWE4Egf3hl+rCygouohaN3AV/oiaNBuzp4/F6KQ49OmmxJm8Ihisi+oag5Edy7Et85Q8AvBNmofHp3THuUO50FfJI+3ZrjuuPwK8dcizXbd0hWBuOE6kH8NVeZREukKT1Honck4D/pMewx+HBMKrVQf0iY9HYrfr2JHtII2kKH5yD7RRqNAjfigS+rXDEfNyVYhIiALyT0E1MQ1zJ41EsqNtkeYfobRZthLqUfcj7b4UjB0+DAMi/aA/kYfy7+WvHamVjgPR3fcSDt0Ygt/b7mOd9Uikq5hzoTmfjkK9GHSULt5hGDJ7bvX2+90swtk2/RHb6kyt4+LS8bZRf/rWTQPD6ePQVdRz+99BXnFlmxSaUZg8ezKmjbPklW4dTSg8WlrTVc+cbr445JOA+XNSMVZj2U5LXslBVaxIG2u6d7iOAtt563AxT0jqzcN9MfXpqfArzERx9a1tcSwX/R4JrfYj+0TNFmimP4FZ4ReQcbRcHmMlHfvfY3SAF1p36o24YfEIqLLkfbOGyqYzXtPgk/wPBCX+Dn59pqOZUQdjh6W4s9+dIh/vkScS/JbBb8LzUA/6Ldp1H4sfjFdQebHQ8l33D3DnqL5o1bw9fHr/BipNH1w5+pXTvGS7rA4RY3GzohSVl6QdmYa2U/8FdWcFlB37o22febjj6ip8f8EymzRfhzHPI2iImE9sawtvP1wtSZe/FKTt6NcLl73S0GXCYvh3lMpiUP3L9H0c7Ua/hC53SduSimbNbsBYlit/KXOQRlWt4+CnPImyY9/KEzlgPiYzMGPKBEu56BsMnD2KM9a+nHL5PVMaiAm29bM2t2YaMwVUA1Mxa/Y9SBkplS8f6A5XoVtSMK4e2IV86744IJWXaWnTzctOHByJlpVFKCyVrt3Wl5+k8jwds+9NxXixvrgB3aGsOiXPZ2EuTz55UCTMx4NTR0JtnncwZiyZin6tm8MveCjiEvuj5Rm5rnLEUT14PRTDg43I2JmL6qJiN11kkA+0Bda8bSlbAScycfKKeWqZD4b8bjESW2fi0ClLIbBNC/M+3ShBobbmjKKOHY6A819j/0l5hFAn/a4X15qnup7W34kZTo+h43q7ccf9JmL/x2ZZdnzHPIInh/6AnYdK5TFC3Dy8cH93nNktzsHyKLRNRNriEfDKOgCt+bxsW4eL+qN7R1zV1q7DLenzLU4G3WepW6XpHNUz9nWhlxY5Jy7LX9qmRQN1mivnqHrX5UR9y+03E4undUFBxvFabQ3300vezwta+N9tc+6od/ss6ZHatTXayOnRp30JMvIuiu8aLpN1zwHNcSLnFK5Km+S03WPRUNlwXN7lL6s17jznWjvOjXMx3XZuBC1hGDqxNy7t+RBHz8mj7OgP7bQELBIpaInWQKO+joyNa/Dhv/fjVLsBuGfSQNzITkextWHdfTIWPTQUXgc+x6q1m7DvzE1oRkzFhKCz2JNrbTyJzPfkfAxXHMK6N9fhs92FuNpjLOaPCUTBvlzLMxV2DVHfpIexKP4mNr25BkedlVOx7sW/HYrm+6V1b8SuwpsITUpFSkhZzbr9opHYzwu5ticyIXjoGIToLSeZqyVFONQiGHEqLda/uQHbck7CWOmgxaY7jUMXO6BvZBV2vvo+PjsoAoyrUmGSCkVfhIcEofLAZ1izbhsyzrfB4HGpGKA8gMzjcuWgGYKxgZeq91F9z5OYH1Yk0uQ9fPafDGj94zE7pQfO7DkMvcOSpELsw79Dats8vPeGmGf3SVzvOwnT7mwOpepmzT7arcdChagR/eB1RG6o2KeLIhypT8xCX/0OrF79AbZ8dwmdRt+PhA5AmyqboMWl412b8/T1QbRoHNwv5t207l1zHtP6DsK0Kf1hzMmC1lnwZh+0uLJNYpo/pvWDKUua5mNsP3AF7RJSkBpcgj1HpIpdkNKtdwS6+R7HxnVbsEveTimvRIeHosPJb/GulM8KTOiSnIrRnU/WzFuHi3miwTxcLhrzd6Ofd4aYR664A+OROrwrQryMNsc4DAmT+uNqxgYH5dsAbVEBqkIHolPJZ/jHhztFZW3AdXMWD8OEpxYgsfmBmrLZdRhmjQ/BCWvZdOSOWWg/7Qm0v/wFSjY9hfK8a1AMWoA2Ps2g8i6rbpA367ERd44Mw9X0/4fSXR/iyvkgtB85G77X8mE4L840V8pw+UIQWt1pQtm6v0JXkIEbVTZXzmz5r0LXiXfC8PWfcXbXG7h4PkIEIvPQ4vxXMF45jevFebjWeTi8tOtwatvH+L5cBEbS9kvzTemHmwfX4Mz23+JCfgs0i56FwPbXcOnMIcuyO92HoJ694NUiF2Vb3oW+OAM/VB2vZ5krEHLvMDTLkZb5D+i1raAc/Ft0bvc9Lp2Wl+kkjfxUohlRVV/QIsrFbx/DZP8SS7n4UjTSfohA6r1DRKCRhXPXxCRS+R0Yge7Bon7eYFM/T+yHS/vlaQTfpIfw+Ki2yP70LazZsAcFzfphmmiAtPRpDn19QYtUXmaFouCzf2HNh19j33k/DL8nFSEX94r8ddlpfpLqtIX9bmLHxn9hnRj/3RU/JE2eiE7aXSiQ1yWVp9ieYfAp2Io1m/fJ817AqWMX0bpXT5j2v4FVXxw0N3xM7tSD4S1Ew+qyTdBS+7yzKb0EV7uLBuTYLig05+1zuN51DEYGiTog16YcB47BtBE3kfHuf3FOrF8pGu5PTw4Sx3k93vnoG2TqOyBuUgoGNMsR5w9LObYPWpRxD+PpKYGWeaSyf0GU/ZRUxN5RM4+5vukagODeHVH41dtY93kmTiijMWnqCLQ5bU0vB/V2o4/7nUDr9rhpXZad63d0w5DETji3Q5x/5HFRo0R9FdRWlAObeYaOxQxVCT7ceRwmKa/OX4T7g8vMeXXD14eh9RuM++/uh6s2dbg5fdoEYnBgGTaslo5FMQx3jqrdBmgbh7SFycCu9/GvdV9gx3GRDcfPRJKvtb60TYt66jRXzgcNrsuBhpZ79g4EjEtAkMjrtumrGn0PJuA7rBH5z1y2G0wvaT9jEBUWgsr9G2vOHeNTEFWVhezTji6VWdLjXPtIdCv/ypwe3+Vpcf36TRfKpFTf/B5jsRdvv/UBNn0rgq6eE/Fwki8y0kUd6LTd41rZcFzezV/ZaNx5zrV2nIvnYvpRuNE9LBiBbQ0oOyEPusL7Mg6s/QA5xRVApR7FX/wTm4r9MXCotT+2D+LHxcC451Ws3noEhkojDIXp+Pi1b6CPHIvkQMtUyjHi87UMvPzaVhRfFBnEcBo5776OLy/1wNAYyzS2LAFLFTauWIVsx+1gwbJuw27ruk0wFqdj48v/gbb3RPe6uRl00FfcEB+qoC/VQi9toyMiDfSXq8RUN2CQptOJdKmmhOHoGmxMPw2jSaRD7mas+OY0QnrFiSLjSBj6dW+OnG2bLWliqhDp+zZWbz5Qc0XLXu9xGO13Amtek+eR0nHt69jXMtjJOlynHDECQ4wZeGNtOnQGE0wXj2D7/1uP4pa2HUFdO951OEvf3qmY0LEAa162yWNbX8cbh3yQOnmwZZoGubhNZ49g43vWaURyS/u39Ri8wmNQ++mCYmyS8qntdgpexd/Uymcfbz4CpZg3RP7esYbyhCt52ITMo2IeEahZKaPD4Hv0CAo7axAlj0NQX2i8TiA7Wx6uRSxXp4VBHIKq6yIPi32T0kAilc144+7aZXP9P7DxfCTuudv5cxfNoqYhsHI7Tu9YBtN1EWR8vwqGz1bhRifbeeZBNUQN/X9m4mLhRhEEZOLG2cdQ+uUhtBz6O5h7dVTtxo2KSvyAa7hh+DduXM00z+mIQhOO5ic2wnB2txjS4odz0rI+RMUl6VsxfFXML85RP1SdNy/rB+vd2Uu7UfrZUzh3eJVlnLSt+w6hmSYOtd+vcwplXy3GdWk7vs8Tw86WGQufu+Jg+q91mXn4oXwZLnyyEdfC56CtrzSN8zSqaNHGMoFTN1Cc/gFWWMuFqBt06euxszwYsf3lSSRS/fyObf38Nr6+KKaJse5VJEbHd0TOp//E9lw9TOblrMWK7IoG6wv/vhHwKvjGMp+Uf/I3Y/V7XyH7rPSts/ykgP7wJqxYIeok83yWPP+lSMpe/e2eOzi51Zzna+YV05ZK84hlVkjdlnWizEjjHXBWD16VE15mf94xXSwyT7fxUiRSx1ryaWH2CXj1GAKNecjCf0gPqE7lwtILKRLjRSWS86koE1I5rqww79PKtcegSpqIcPMc9qR5RLpvkOcxl32xv2/los2IyYi2zXSdfaB9X04va/2Xfh3xIxPlCRxo9HH3QkTtJKqtIAv5VSGI6i4PQzT0gi8iM1fEVxHWcq1A9J0BKM7faXleQqrDA8SxkPOqSdT1xV+8ipVHVRifUvvkrgmoxDrbYyG1AYx9MWGEfI7pHYXw8iw5zUQuKxH1rNjPncdq6uEazvKgi+cDt9YlcWW5B5Fd0BxRAyPNc1ioERvpi7wjWZZBl9NLnDty36517lidfhHh/Rw0mMws6aEX7f3q9DDfwnKlTEajX6geOz+0nPtRqRXHRrRF9uVbjrHTdo8bZaNOebfXBOe5ettx7rbP6HZx80H8SlQ2cPezFsN5FNWa3gTthQooWnnLw9G4M1CLA1vtmtmXdyD7nD9EG8MsvJsahYe2yle/rPTYteLPWGfTQ0PiWsAikdatw+E9dus2pSP7hC+i+jtvcN0eFdAWWQuzrEQU9pZKUVwcKcLxswpEjRiHkOpXE4rAJUsUbPPJsi51pGgiixNLYa3vK5CZf+t9WKPCHB2jIhwotN0n1463q/zDQ6A4mWO3P4Bu3zHoQ3vVVFT1cnGbDPnIF5V2NW8V1J197RqtQnkJ5I5LtZRpj8ifZDkl0Pqq0EkedKyhPOFiHt5fjGK1teIWeaarL3IOrhf7F4hw+clIlTgBqU4XOtz2+khlU2qA1D7uJmQfPg1V2ACnFboyRI2Lx/4ugg1ba3C12KafTYdYtPnhEAxn7O6c6Hbj0jU1Wrn5LgXTWS2aa1Lh2zlWHiOCiXN/xzWDkzszVtfX4Jo50JF5iWBF5Yfm8mC1C0UuvtVvLHw6aXH5kM0yJdefx6WyDmjdxTLoUho5ZIT+wBHoqsuF9ArTHuhgrXat6tTPov44KwKSjnIo3T0KmpvHkGn3PIRxV54Iz+qnO1kCRY8kJIfXXLQw5ou655yTyslMNInyD6LYpt5WtA9DJ986KV23PLnB1XrQ8XlHTHf0LNTBcsv88AHkoRuie1sGpUZmv+5KHMiUT0yiAnGUhuYG/vUgRFQ38G1I8zSXGlZ285RkIOdSMKJs253lYtm2vXgF3bdHbMq7A7ftuItAorh5TYDSXezHpWPYlF4IhaavXGfFICrUIII9S70m1eF1j4UI9/cXwqgOq3VByFB4ELVLqh5Z4piFdJMrsaJiaANikDpYXVMvlxxETqGzQMIRF88Hbq/LteUWHjoBhPWrCYKDBiFKWYB9eywJ5Hp61T13GE+WwtC2k91Ftoa4UiZP4JROjYR7B0NVXcdokZ/ewJvH3CgbLpX323iec5Se9bfP6HZxI2i5CH2laKg5qmQbq7sa/qIIpS57EcuX1/6bKtef0h2F0A4V0JXWm/0tOidh0chgKE0G6M1XT+shrbvyPEodBGH6ims2gZXnyn93FbZ8H4mH/rQUy5Y+gQUzx0HTuU4zupq6gw/KdA6Ka+l5uxOzu0RlqXJ8jIp1Ngns0vF2Xai/D3RSdxt7pVdwReHlWmXi8japEDJxDhY+uwTLXlyCF/70AFIj2svfNYIL2blBrubhywdReEmuuBUxCPcrRb44UeScNIjzhnS1zAe9NL7Iy5Ov5rlMKptGlJXaVeaSCwZccVqhz0LLdldgLK8bLFwX81Xr5Aff1rEI/90h9K719zi61HfF15mTj6Mo/RpUE1ch6qFMhExeC1/1GPnL+sShRf8PEDwnEz1/ewh3zvoLOnVrK3/XCP5qKO9Qo5tYVu39OgSNHLC4nEbOhMQhdcETeGGpyMtL/4RFs4cgxIUHjk22EVKQCqrLZSiWB6uZzkLX0CZkvYcV31ai3/1PY/myJVj06Ewk93YhyvSLRHLaY3h26RLzfM/+diyi2snfNRHX6kEpb4t21aildeqF5WOC5WkkR7Az14iIPvLVcamR2cLmSm5wJ6h8+2KB/TKWz8MQZ3lYmueS3q6BLtFCf1XUa7aF6uqVunfWL3+PKlfrP1lTHffCglKo5ADFv3cwTCLQMBbko9A3BFHSqUnqMm4owgH5sRepDveNnmOXNuJvXt86FzzKzuXLn2oYjZWi+hLbKw2UbsbqDYXoNOohcx397KJ5SB0WVhNUuMLV84G763J1uYe/Qeb1miDYf1AYlAUHqhvZ7qRXHeKcY7157JYGy6QW29/egHzVSCxa8iKWPfsY0qbHQd1QE6oxZaM+t+08R57EjaAlF8VlPtD0dh6nS7/JMWui7a3NBpwoExXuaaxb9CQWOfhb+Y00UTHKLvvAv7N5jvpdP4LVT7+Ejy9FIu2hRNSb76V1e/s6LOiKZvIHT2c6jX0rX8LiJ5/GC//YjEz0wKwFDyLaSXuqTG9zNc1WZ1X9adUg58fIX2WzMS4db9dJ++PbxsG9CnfOUi5uk3r6w3goohLb//UXkd7P4NlnXsKKbactt79/Ki7nYS0y842I6t0XiOkFjQj0csRYY3YRTHfGQC0q+IiOZ5Gf4W4kJR13JVSOYjdxDJy/gWU7qq60gdLBhiva2+REfTkqLmXi6Gt9cLjOXxwuun2DUAtTbiqK3+yDnH8tlp5LR7uxf0bnHjV3XhxRxP0F3e404PzG2Tj6zz44vjoO2lv5/YLycly7eQKFDverD0rFdtWbRm0aKK1tEzH/oST4H/8Cy54X+fjpP+OF5auQWad124BzeidXZjuKxob80SkTdF+vwvKnxfr/8io+Eo34qHseQVpcfe8NDUPqw9PQz5iOFUufwaLFopyJebeclrpsNB2n9WAH23pQyttA/he164PqvxU75OkAXUYRjN0tV8fVcRFQFtU0Ms1peDkLyx0tY9FSbCyQp7MlzdPaUblWQGF/06llq7rBiVutdAecHvcA+Dd03NNzkefXAzFt1egX1gKFeVLodRD52gBExyugDg+B8eTB6jdgSsdCn7XKQdqIvxc+qBW4tfF10vawCdwMWR9gxfMi7zz/MlZvFwHUsHlYdI8brzR24xzl1rpcXq4WBwpEXR0t6mpRHob2VCLvUM1dBnfSq2m4WCalrnIv/xmLF/0Zf1n3DU6pkrDwD5Md5CEbjSkb9bpd5znyJG4ELSZk7i+Cb18RZTuqFBXhSIjvLhoax+QRLhCNbp2howiE5OFqonL2tq7EhGJdBULvtH9GQYHwSfOQbDuvvgzFJj0y33gf2e1GYfY4R805mXXd1f14rdSICG0J7akiy+DNKtH6sr9q5YOmesNq4ynhG6iSz09Sf9QjyFz7pqVvsm2/dRvFp8vQpmtf1L7eaeljXIt0OabOydAXCqetUMsxUneRKlpbPgi3fbm5S8fbdcWi0lMFhtcNuAZpEFqude0WsEvb5I/wIB+cEiepnBKbMKW1e1czm5yreVjQ54kAKyQc8d0DoTspX2kqzRVpFIyoERqoy4qQ43ZdLh/3kLr9pP17BkN5ttjJSVQL47kLaBOyWB62SoVPF5vnNXRaVLZRw7vOK2wj6ouInGs1Bs2s813fjut5M1HyXTn8e4yVRzqSjNad2+DK4XkwXpaeU5G19JbLXiPczIPxqhrKOmd0McLLOlLs+4UrYt0L5GGrWHiL7alX9xCojcewaWu+ub+9RSPqrIIylPkGIsz+Ikjv0PobI4KivRq+1iutUr/7b9dipdSnvo+zPvWCfzhCfM9i57p06G36rStb1O0edius9YZ92dWEdpQ/SeS8HergIpy33ZxSt62K7hgyOBJDelxH5g6brixSGvoEIrzOhSSlqF/kj/bkdA+3/10S0ejSdNaj2PaGg5+Yzj4julP/OVJQjFNKUS/YP9d5l1iu/NG5LBGg+CPirr7Q+BQjR2545hSdhTosGVHBzVF4pKZeMh8LtaZuPSrS2H63/Lv1sptOtAFCOkJ/QX6VlK9/za+4V+qhPbAZqz+3PDvYUH6t5uo5yt11uXHuk7o3G8RyonoPQZQpFzsPy18I7qRXk3ClTCp8RHJYz/NGcze+7a99jsyWEYitr2dOY8pGA27PeY48iXvPtKSvx8YzgZj19DzEBtkUm84xSH30PkTrv8FGue+la4rw9Z7ziJo4s1YF7RszHYuefhDRrS3D2m17cSooGVMH1jS3Fb2mIDXWG1V17mELpnxsfGM3EPcwUns6K8qWdYePmm6zbiU0M+Yi+Q5R6KzPyhTmo/BGJKbOiJQrBSXUE2dhmP0JRerf6OWN6sdLnDFfcRHT3fIPZXXD6AcfwYzBNoFZ56GI8BMnNWdXKPZ8g313xCBtttz3VFQ2IRN/i4SO8itjrA4XobjzIMwaLqe39DrD2UmOg1WZdls2dBHjkdrLmi8UUA2fhX6tbbsOuXa8HXKUvrvE/igHiODUprtG50TMHx2Mwn3bq6++1c+VbdJBd6kKqs42D914RyJ1TGTdk8ePysU8LJH6CSMSw+804PAe6zGR+qArkRAfDF3B3gbvGknPoym9a18IkMqmttsoTI2pGa/oNQ1pA1pg3067B85s3DiwC5eCUqHuPwvNpFrIKxXKpHlo28wmL95chfJcXwSM/z8oqmsqNRTRf0ePe1bVnKRFA+3azbZo3sCvS7YY+GeEDV+M6ptQd4xB6xA1LusOySNELHPxijhh2jZeRXBzRcQoHWfJw4LXPLSP6y1KsWvqLnMNLn2nhWrYWunaQLVmXV9E1zkr0EoOrEz7s/B9j3vRXi2CNDM1mvdajPbKBp5p0V6EQdkRIdV5wlIWh7tyt9qWaTe2i/QfPjMRKmtiS/l+RACqHD4MWyN0/AN4dObgmgsKog6J1rSH7lxN5VQnP+lEGTepoLaps6W8lBrhaikTQbIo9Eqfei5WSXbtQ6avTf0mSOsZ3+VGrTIg5e2y7qm18jb8YjD1D08hLc52m7SiYamDJjkVEdeLcMD2GRORhlsOtcXw34yDf/VuKeA/7gE8+4fJdheQZNI8B1ohYabNPCL9hjw0FpqSdOy0eaMwjJ0QOzOmJp3F9s1Icqf+c8CUju3ZLZA8Z6YIXKT9VIjG+DjMH9gJDT1NJWY2PxCtHjwIqsKcmsBpfzF03e5Cgs8JZNs0ws11eOtBSLOtwxXBiP/tU3XuWuhbR2JGrWMm2gA9DNi7zRIEKe+6F88+bJvOoi7sFQKvMmcXTxzkQRfPUe6vy41zX+l2/FcXjPETu8FYkFH7d9ncSK8m4UqZbD0Usx97GKNDbKeJgkZRhlPWFzc5avc0pmw05FbPc6624+gn49bvtIjTL87tz8TJNv0xflIKUhKHIi5pDMYO6Yqbxzdh1Zq9Na84lX+n5ZDdq4LbRMWjD3KrXxF5/WQ2TrSPw333TEDysHgkJg/H8B53YN+Hq7BHKwdA35/C/rL2SJqcitTkeCQkimn6KnHk03fx7xNyFrR/je33x5F3sxcmT+yPq4cdv/627roT0EdxDGtWf4yT1dOfx1FdawxIHIfUUQlISo6DxrADmdd7QmX7Xv0LpbjaLRmzp45AXFQrHMo47rhw3CxBeauBSL13LBLvCkH5t9KtcumVelFArt2rJO3TsNY+StvVDomTJiMlSaRJ0nCMHNIJ5dvfx8cHHTzkYHYRBZkncbPvcExLGYvRw2IQcGkn3s5XIcH29wmuFSHPGIKE0ROQItIkKak/fPP3oqhjaM022m+blN6XQzDy3rsxQaRlQnISBrTMwuvZPiIoqjkuLh1vRxyl781y5B+9Ds2EaZgx0pIvRg4JRPmOt7H6W/nV247Y5RVXtkl3uhLBo6Zh1gjpNyDEeuLVomFwHO26ODs+NRz9BoOYGANGdsS5bSJvymNqcy1PuJaHJRdhCo3HoBZ5+HT7seq8qb8jGAl9WuDQxh0oNO+Ec4ZzVQgYnirSIAE9fAqQeUzMYC2bUybXlM1eXjj02Sp8nlPP6eHGt6g43gbNe9+HLvG/RcfesbhZ8BbKr/ez+Q0SA26cLoQxaBY0I36Ldn3moUPMbHTqoEXx50/h2nV5g384jmvNxyJozBPoEDUUxoMbRdOprhunr+FG39nodtc8tOsrlhU7Gq30X6Fk5wrclPv03yzvjDsG3oeuA3+DFiiB4WwhTGfbQzHkQfM4ab6OUSEwZOejeQBw5dCXlvf0d5yGTqoyh68hdrRMnN+Dilb3Ini02OY+v0GHAQvQOdQE3b//CMMl+anXqq2ouJCEjmN/h85iGtWAaWh3xx4U57dxui4zQxG0PkNwj1THJEh5Igl9ftiNfVfDa+osl+rnm9AfOYkbA+7G7JThSBD5a2RCVxRv/AL68J5186YN/dEyKBNSMHPcMJEnhiFx+GCoy7/B2+sPW367Qaibn47ixLVuGDv1HoxLGCrqkOEYqj6NnUXtEWpzznBcniQ3oa1ojUGinKYkD0Un407pfRd13TyHoydbYYCoO6dY82xYKd777DIixG7V1Gl18/bIuDDccfgjrNpSajnuMtP59ogc2UM0zj/FNqlcVLuJy7m5uBQ5EQ9MGWFOw8TkUUjoVIqPV32MIvm3NWrvk4N5pPTTf4OVq3bWnGOl+sbnANaVDcRDM8ciOTHJvH34bj3++R9rZGNXj7h4XjYcycJRZRTGTxDn+RHDEKu+jK/W5KHTXQ3/Pg/0/ohMCkLZnvU4ZE3/a2fh3TcRd+rS8bFtVFenDh+GkSOGoNPZLVj5wUFRx1smk9Kn3YF/4Viv+XhogpSnrG2Af+Hf8sPvpsJClIePt0lnURc2P4b31m+Rf7usbp3qqE5z5XzQ8Lrqcv3cdx269r0wNgLI+HhL7XrZpfRysT3hgH0+EK34hsuk1F6ovBMpM1IxUtov0RYZ3usOcQ5Yjx3WngkO2z2NKRsNce88V2fZDttxjU9PanrN2nfuUfvlNG6QugC08bps9+rexrJ0d/Iy1bc86S04naBUGHFFfr1lkzDf3mwrarAy+TV/Tvj6QGGoqH+93lK/aL2T1/LZkNaprKx/fS5pgjRJehjLY7RY9tfP61ydU4h9Nol9dp18HI16569+NnPleDvgJH3NeVF5q/mioW26TfmvKbiah5uAor1KnBvs919OG9xafaCI2w1Nq8+Qv/Xv8hjZHbFo3rqDiDxOya8TdkBM00yhxQ/S64Hr0yIZzVu2wM1Km9ca22sVJxqtu+UBiRrNWvfGHXdU4IbBdrwb6ixTEoFmvqG44+aFel7XLE9T3747IsqKSqVEVVPkCV9/83MsRl09rxJ2xDyfF6r0zl5V6iA/yXm54TrEGZEX23vDeLGhfOh6nrXUL1Xu77+txuyX9Rg6Sj+p3u6ZZ3m+pr7pmkwi5i+PQfHLL0HEbE3PhbwiabCub0S+d1ynuXCOalQZa+S5z56L6dUkXMq7LuyXs3bPLZf5JiaOq0vtOPrR3VLQQj8zneMwa4o/dr6xAcXVdYYCmtl/woybn+CFtY1/jSiRO5qpVyCgZznObnve5pW+cfCdvAJtCudBe8j5760QkWAbtDQpf0TPm4KgvW/iy6M2jcvomXg2BVj3/NrGPy9DRHQL3OweRj9rFRW4o88EpKUMRHDndlB264+Rd6didMdSbFi3Beec3NYmanJX/XBHv/sQNiAVN5W90DxoDjomzUWHG7uh/XYVbvBSClH9nHRHvXVXcbVVX6ROHYfYsAAo/ULQd3gqZtzljxNb3sOO0x5wJZyIfpV4p+VXSBHUF/0iO0F61sx0PhcHDmg9q6sT/Uqo0azzLLT2t7wN64ZuI4zneIeFyCVS1ySl8fZ1p/FWI3xQL6ikt85dK0N+xsFab5AiIvqxMWghIiIiIiKP5t4rj4mIiIiIiH5kDFqIiIiIiMijMWghIiIiIiKPxqCFiIiIiIg8GoMWIiIiIiLyaAxaiIiIiIjIozFooZ8X6bcJAlXm35ghIiIiol8H/k4L/WyoJz6G+YPbA6ZryP50KTZmy19UUyN25lhEtZIHHTm3D6s/PyIPOOODqHumQ1O6ARv36MWwtNwkYPtaZJZapnCXcvBkzAgtxUfr02GQxzWWathMpLY94MJ+AApNHCYkxyAqyBeKKgO0J49gy2fbUWyw/zlRJdTDUjA6RoOQNs1hulKKzF2fY8t/dfL3Vq5OR0RERNR0eKflx6JJwcIlcxAtD3qq6LTnsHBSmDzkSeIwOk6Bfa89g2efcRSwSC6j7NRp5Fn/LngjRNMeRttxZy7J09ZP0bY9/H2V8pA31F1DoPaRBxtDoYKqQxvR5L91yoAQhHfxl4ecUSAk5TE8+0ACVOfT8e4/38Ir675BYYs+SHvqMUzoaXuvSoXYBU9hfowXcv79Nl4R067eXgr1mMeweHq4PI3E1emIiIiImhaDlh/LHUoovVvBSx70VF5KsZ0t5QGPohD/q4C+RB50qALFu7di31b57/B5GMW4Quuw9HdAK09bnwpkr3oJK//tyrSuMe5eheUrtuJHux8RPR2zB1VhyysvYvWn6Sgu1UJfeBDbV7+E5dsqEDNjLqKscUvvcRjtV4A1L69FZq6YTkyrPbAZq1fshqHfRIwOdHM6IiIioibWXOnj97z82TWdYzB6zv2YNWE4EuP6I8Bbh7yii7gpf23W0DR3zcELI3xxpEMS5t2fgrHDB6K77yUcOnYRfsNn1YzrcB0FR0txXZ5NuguQ1Hovyrpbp4lDn27NcSLnFK7W2gCpW8woTEubjqljEpE4OBItrxejUHtV/lYwb4MS3ykGYu6ce5AychgGRPpBfyIP5d/L05gpoR51P9Luk9fXvSOuao9DV2FdYRhGPz4Xmgta+N+dhrmTRiJZ2mcvLXJOXLZMIq1rcg+0UajQI34oEvq1w5H0YzBvjX1a2c7njMIfUZNmY/b0sRidJKWBEmfyilDT48eFbapDmuf3GB3ghdadeiNuWDwCqnYi57T8dUPHVLqTNDccJ463Qdxv5OmkdK8sQmGpUZ7IuXqPl5R+8/qjkzX9krri0o6DOGf51rkOvRDXX4mT27JgH35I65s8ezKmjbPsT7eOJhTWyWvW/VchIiEKyN2F/Av+iP+fRxF7cxfE5DIFouc9g5k9yrEv97w8TuSc4Q/jqWRv7D1wGjfl/LYj2xJ1WZafg6rYuZhrPo5187uZdxiGzBbTyMfQ72YRzrbpj9hWZ7At85Q8kT0fxE+fgjbZb2BDtk2el10/mYcb0XdjYJsMZBaKtUXehfFtTuDDdLvlfX8SOYeOobj8KkzSgXZ1OiIiIqIm5l7Q0n0yFj00FF4HPseqtRuxq/AmNGNmYIK6BHtyy6unWfzboWi+v2aa0KRUpISU1UyjGYKxvSPQ6UYWPn57A7bneaPPxLEY2LMHIu/IxQfvSuNuovuoFAxUyg0rIXjoGGg6hWCAnxYbVq/DpvQy0fobg7QRfji6K6/6WQFl3MN4ekogzmxfj3fWbUPGhTYYnJKK2DtysP+k3ICWtqFXJNSqU9jy9jp8trsAhrDhmJvc0WZZPoievwj3B5dh07p3seHrw9D6Dcb9d/fD1RzREDYHNypEjYhBVFgIKvdvxBppfefF+sanIKoqC9mnxbbrTuPQxQ7oG1mFna++j88OisDoqhjfNg5pC5OBXe/jX+u+wI7jIvnGz0SS7wFkHnfW0A/DhKcWILH5Aax7U9ruQlztOgyzxofgxL5cXDY3Gl3YpjoM0BYVoCp0IDqVfIZ/fLhTBCUGXJcCIVeOqV80Evt1QlDPMJgyP8I7H32DQ5VdkDhhIiKdrtOiweMlpd+RZggerECmlH7fHcEZg7F2oOyIs6BF7M8f0/rBlCXtz8fYfuAK2iWkIDVY5OMjF82TSHktRP+1WL80ZBu0iIZ5t3iM7XwFOw5Zw6aBGDmpF7q1+wFHd+bKeUeBfmNToTrzETKOi32X8lvgpepAQ1p+dHgoOpz8Fu9KaVpgQpfkVIzufLJ6G6AIR+oTs9BXvwOrV3+ALd9dQqfR9yOhA9Cmqr6gZSCGT26HvPe+QfE1eVQt11Gc/nV1uUJVIPomD0Cnc1nI19k+63ITpqs2gYir0xERERE1MTe6h/kgflwMjHtexeqtR2CoNMFYnI6P39gBfY9BEE266mkMu2tPs/Hl/0DbeyJGB5knsrhZiE3vpkMnGp/G4q1Yk34RISo9Nq6zjtuNNXu0CAmLkWewCGmrx7uvbUXxRSNMF49g32tvYXtVDMYnWfu6RGK8CDxyNvwDG9NPw2gywpC7FavfykWbEZMRbduV/45ibJeXBcNp5Ly7CZktIxDbU/6+dyomBJzAmpc/QE5xBUwGHYq/eBUrj6owPsV2u5RiHW/brG8zVov9Ce8nT1Oph/5yFapwAwapm46uwjK+dxTCy7Pk+QBTiUjPdz7AzmPO70wox4xFvHE3Xrbd7vViX89H4p671fJUkga2qQ5xrHRaGG6Itul1sb1iOw2V0ng3jqlvAKr+K6d7ZQV06R/glc2nEZI4HrZbVpsLx0tKv9Lva9KvVC+29hacPYKN71n3R+y5yEfbtx6DV3hMPdtZQ7u/EMaQ8JppozXQiGVkIhhR1i5SihiEq3U4vEc+1g54FX9TuyxtPgKl2IYQ+XvliBEYYszAG2ulMmGybOf/W4/ilg08XNNdDf/K8yht4IZdtZLP8caGYmjuewrPLpqH1FF9oW7v4OkbV6cjIiIiamJuBC3RuDNQiwNbpbcp2SjfipXPv4Mc84A0jdRQs5vGlI7sE76I6m/TJNSX1br6bTSK1qPdONwULWg7uiMZds8FaLEzV4dQa3CjCYem+QlkZ9s1a0sykHNJNCpt2+zlJSiUP1rkQlvuA//OliH/cNF8LMhCod2izI1WdZhNA7cC2qLajVPjyVIY2naqvxFcVAxtQAxSB6tRHUuVHEROofOgJbybGsX5O+3eQGVC9uHTUIUNgEoe0+htqsONY2o6jew9domVnoUcL5vGvD13jldTMeQjP9dmf7xVUHf2rTkGDSnIR6HNPqlFPtHlb8S+4y2giZYDipheiLhUhNx6Aocyrd3bv3JKoPVVoZM8GBWmRuGhrXbHuggHCp0HQtWqquA8F9VlyFqL5c/8FW9sPw2EJiHtj89h2dNzEN25dqq4Oh0RERFRU3I9aJGu3hrOQ1vfJe56rvDqK65B0cpbHmq8K4a6D0dLAY+ipbzs4E5QXdLXeYZBCm70V72grPfCsAkmmzgp1N8HvtFzsHz5i7X/5vW1CQ6cEOlUJX90qnQzVm8oRKdRD2HZi0ssV6+HhdXTeA5DaAcjykodNFovGHClpbL+t1O5sk323DmmRgPsQhvBAFNVCyid3Ry4pePVWCqETJyDhc8uMaf7C396AKkR7eXvXHEQ+ad95QBFjaiu11GYLYLE/GKoulqiLE33QOiLvnOQHvWoVbZEUKyqgK60boEr1jVwC6XMAIMIftwLTgWTWN+Brdi48v/wwpN/xorDvkhd8CCi28rfW7k6HREREVETcT1oOVEGvc1VYIekabx9HTboFc3kD7fIy1Hr947m8gfhnB6G1o62QQGFzWSuKNNXQJ+1CosWPVn374UPHDS03WfI+gArnn8Gi55/2fz6WNWweVh0j7NXDhej7LISKkftaxHp3JY3k7lzTL1EkCF/rNHAVjXh8XKVevrDeCiiEtv/9RcsflJ6hfJLWLHttFt3JnJyT0MdngBl4ABEKU4jR3ooP7sQpzpHIFYRhqiQGyg8fCs5RDrWNXf9bPmrGogOLudDawhA+F3Ow19NigiQ4+p7bbIR2i/+iS3ngxHbXx7lkKvTERERETWe60GL6TR0jhpCir4YPT8FGumzeZqO0MTYN5bUiAhtCe2pInm48dRBlqdnaigQHeYP3ZkCy2BBGcp8AxHuZxmspoiBprMexfnysAuKRYNapdbUbYh7K+u5G+IGX3/4+spLqtRbXh/7ueW5BsdXyU0o1lVAHVK3z5R/z2AozxY3SSBVizvH1DsAGttnXCRBkdAoy1AoH546mvB4ucYf4UE+OCWCxZwSmzCltaOAqx5ZIkDpGIKYAWHwFRtpSfcs5J8TZWREL2juKEaOs312iXysu/SVh618EN7gD8YUYe8hA6KGjhN764BfIpIHtYfxpKWjZdS8JXh2hqPfWfGGQhx2k3x7ztXpiIiIiJqaG8+0FOHrPWehGTYdUdX915XQ3DMeya0q5UabNM15hI+abtMIFdPMmIvkOw5ie7o86hZc6RSNGTE11+V9Y+7H6C5n8fW3cnPdtBtbDrRCwkzRYLNupsIfQx4aC01JOna684vmu77BvtaDkDYuWB4hKIIR/9un6rkb4oR0x0I07nxtGufKu+7Fsw/bbKeUVr1C4FXmPPjQbtsLbbdRmGqTBope05A2oAX27bz1BNZeqIDS2/a+hxvHtLIFou62TfdgJN/bF4rsb+RnnhxoyuPlEh10l6qg6mzT+PaOROqYSPeCFrHd2SUBGB7ri5zDB60jkXPyIiLiB8D3ZI7d81Lu027Lhi5iPFJ7WbdMAdXwWejXuuFnWnSfb8D25oOxYNFkaKyBsSC96jltwSioDn+BLfJv3uR8J6Kr6Ck265EooZ44F8PbFyFTPsauTicd9yEzpyHaPhAlIiIiaiS3Xnl8/WQ2TrSPw7Qp45A8LB6JyQkY4H0Cb7/zKc7Jv21inea+eyZUT9NHcQxrVn+Mk9bfP+kag5Edy2u/stWFcerY4WiXvRHnBv5GBBLDkJA0HMN7NMO+9a9jT4n1fas3cTk3F5ciJ+KBKSOQIG3D8MFQ67/BylU75VcCC47WJ0jrCDgvv+r2Zjnyj16HZsI0zBgZj4TEYRg5Ygg6nd2ClR8chNG8LNvX4UrDMul1u72AQ9ZX4N4sQXmrgUi9dywS7wpB+bcHoS0sRHn4+JrtlNKq+TG8t36L3W/F2Pj+FPaXtUfSlMlITZa2SaRBLy8c+mwVPs+x3jlwcZscMJyrQsDwVMwakYAePgXIPGZw7ZhKy+6px+fpbTHjgckYmRhvTiu/0k1Y8d7h2r89UouLxwtdMWBkR5xz8JsrTjl55bHudCWCR00T+zgUcSL9RsarUbjvONp1qUmbWvnAYXrehL5jNEaGXsD29w5UvxzCpBPTDgvC2T3rccj2hzAd5OWa5VvZ7eP3x5F3OQQj770bE0S6JCQnYUDLLLye7YMEB3m3tosoTD+MS13jMWXyBIweNhQJI8ZgdL+OKN/zLl7/7LjYA9m5o8ipDMXoyVOQkiilyTAkjhyOwapSbHhjDQ5dkad0dbrOd2Hy3QMR+kMeMkT+ISIiIrpVzdp37vGD/Nl1Ch/4+reFl1EPvfTaXUfkaWAog6HmVw9vSeyCFxF99Ems/EYsvr0abZRGXKnv9bfeKqhUSlTpra/vvQW+/lD5et36sqR0UVbWThPrdrqVVgoo/TtBics1r1BuQor2KtHutUvb+o5p92lYPA1YIz3r09hj35THq0Fy+ikayEMeQQnfQFX95a1e8r5WNTS/NU3QQF50dToiIiKiptG4oOUnYhu0kIexDVrkUURERERETcGNZ1qIiIiIiIh+fD+rOy1SlzCl8cfoOkRuk7qEqQDDbeiqRkRERES/bj+roIWIiIiIiH592D2MiIiIiIg8GoMWIiIiIiLyaAxaiIiIiIjIozFoISIiIiIij8aghYiIiIiIPBqDFiIiIiIi8mgMWoiIiIiIyKMxaCEiIiIiIo/GoIWIiIiIiDwagxYiIiIiIvJoDFqIiIiIiMijMWghIiIiIiKPxqCFiIiIiIg8GoMWIiIiIiLyaAxaiIiIiIjIozFoISIiIiIij8aghYiIiIiIPBqDFiIiIiIi8mgMWoiIiIiIyKMxaCEiIiIiIo/GoIWIiIiIiDxas/ade/wgf65X94ie8iciIiIiIqLGKcg7Kn9ynctBCxERERER0U+B3cOIiIiIiMijMWghIiIiIiKPxqCFiIiIiIg8GoMWIiIiIiLyaAxaiIiIiIjIozFoISIiIiIij8aghYiIiIiIPBqDFiIiIiIi8mgMWoiIiIiIyKMxaCEiIiIiIo/GoIWIiIiIiDwagxYiIiIiIvJoDFqIiIiIiMijMWghIiIiIiKPxqCFiIiIiIg8GoMWIiIiIiLyaAxaiIiIiIjIozFoISIiIiIij8aghYiIiIiIPBqDFiIiIiIi8mgMWoiIiIiIyKMxaCEiIiIiIo/GoIWIiIiIiDwagxYiIiIiIvJoDFp+YgpvpfzJ8ynaq6EKVEEhD0Nse/XnnyOF2P6f9Q4QERER/To0a9+5xw/y5wZpUuYhobMOO1d+jkJ5XFNRDZuJ1B5AzpdrkVkqj/wZs6SVPGDnyrGv8PG3WqgmPobFcf7Q7n4Vr3yhlb/1QIpwjP6fe5Hc2RJg6fa8iuVZfbHw0TiodbuxbPlm6BGJ5PlDEHpuH1Z/fsQ8nWeLwYylkxGNfKx++h3xXzViZ45FlPi0ce1usT+uca1MNG7ZEoVmFFIn9EGUSqS9UY+c/V9h49YimOTviYiIiH4N3LrTouoShnCNGip5uHEGY8aS5/DC4ynwl8dIlAEhYtkhUPvII37mLGkVBk1QIELs/tQqb/M0xosGGK4Zob942TzsseKTzAGLsfQgPt78OT7aKwKsq1egr6yC4dIVGM0T+UMj9je8i+1R9WR66A1VMBnEMTAPe0PdVWx/VzXcufflWplo3LIxeA6enZ+I2E5K6MvF9ipF8DN8HhZND5cnICIiIvp1+Am6h3nD11sJZWslvOQxv1ynsfGZP+NZu79XPi0yf2vcvQovPP1nrNldYR72VOpOlia59tAHyPw2HcXlYuDybqx55hm8sGq3HLT83BRhy1+fweK/boBn3uPyQfyQcBHk6LDlbyLP/L9X8cqf38E+EWGp+iUhlt3aiIiI6EcWFtYNMQP6Q9W+vTzGsZEjhpunbUrNlT5+z8ufG6SOHY7IdpdxdFtWdUPPt9c4TJl9L6aOSURi0kB073AdJwtKYbwpT2BLk4KFjw5FqKI50LID+sTHo0/7EmTkXUSbqHgMCgDOHD4F1cQ0zJ00Eslx/RHgrUNe0UXUWlxIHFJnTsOMCcORKKbp1tGEYpt1+k96DH+cMRgtL5kQNf03mDFuAFqeSUeh1C+ngXkdUvhDM34qZt2bgrHDhyFxcCTaoQz5p53fIXGUVnXcNQcvzEtBQNVO5JyWx3mHYcjsuZb9F+nZrfkZ6PqmYZG0P/I+VO9f2RWE3CumFfsSNyAYV04cxTnv/hj9m/sxS9q/wd1x7WwezuhtOhN1jkTyvTMx07z8YRgQGQBjWT7OXXaUAGEY/fjvkdq1NbxEeKsKHoq4xP7ydkh3zNIwtdt17MguEdN2xYCRGqguF2Fb5inL7EKt/DG4N/xaXUCB/fG0o9DEIWWGfIyS4tCnmy/OnjmOy9+L5Y15BE/PHiPSZT+yT1yX5xDMdyVSEN2hDBlHpahKCfWwKZgxYzJSRopjJuWltldw6th5WOay7NusIe1wJP0YrkKFiIT+6IJzyNiZK999aWgZNsc5G4idL+U1aT8j0fJ6MQq1V+WpHC1bqDcvthAJcQPaY98hK7/c0h3sZrkoJ9L6muNC0S4UuNPPjIiIiOgWPfTbBzFABC2BgYE4UXQCxspK+ZsaDz0kponpb55u27av5bG37tbutAyeh0Wz4xCtvIziklIU61tAM3AyFs4dLE9g53s9tCUXLY020zXxuRRave3ONkf4pLmYEFAFbbkBplb+iB4+Dw+Nsekz1nMaFi8YhyHqFtBJ6zS0QrhY5+JHx1V3N/Nq2QpKb1/EpkzGkA4iQLJyYd66VIh96BHMjwuH6prevJ86RTCGTHwYC8bdWkc5tJC2Uwlf0T41U4Qj9Q/zkBruD6V5XUb4i/2f1dNXTCemlY9W9f7dMw1DlUZor4jGvH8kZjz4WyxYMBmx8jhl+zCkps1FbFvLfPBLxPwFMzE63BfGcrH/JXoogvpixoLfI95PnqaWSuh14hhdrTIPGS5L85yHXgQP1XfMlJaubo74Jj1syR9tvrcc6xsiLcX+PJvmJH9IxDFaNF8coyD5GJVfhyo8TuzXTGgUYhsOnYZBrDc8aqhNVysFonuHie25geLD+ebhkOmPY+G4vmIeyzHTXvNFdNxMPDq7r2UWQbrb5/yOn2vLsFAh+aHJiG4hyoGUb9sEI3mKyDNJ9eSPBvNiBYp3b8W+3fk1d7I6j0K0Wvx7tRh5Tf1QGREREVED9mftN/8r3UW5596pde64SAGL9Q7Ltv80XcAiuaU7LdEp96BfOx2+XP7/8NneA8jO2IczviHwuqmDNrekbrchw2kc3e+NcOmK/NWjWPN/a5BxynLd2XKnpTWMee/j+de+QvZ/07GzsC36xqqhVjbDnvTjMEGN0fNSEHnHaXz88t+xcbe0zl3IaNEbCZF3oo1xNw6dvlm9rOuFG/D8/63D9h3SnQHX5q2jdSDCugWi+emv8Lc3v0D2/gPI3HsD3YZr0M3nDuzfe8xh9yhLWrVAu27dESkizX7Vf11g2H/M8jB21xiMvLMt9IVfY/9J0YgeNR2zItpAn/2OJQ32Z2LPQSDyLhEwKa7jzIFdyL9Qk1ZXj6zF/678Cvv37cWZoMHoF6TC9exXsewtsTwx7mTgYAzo7Ifml75G9mnRDA/qgdDA5ija9Are/uw7y/JvdhfbEIj2yMO+Y9X3AGQGaA8fwDn1ULG+Fjiz6yWs+uQwtObJ7O+s2A0rBmPaAwOhNhzEiv9dhe1ZB0RaWbZpUE+Rnnl7USgCK3uqbj3QsZ0B373xD3wsHaP/7kWB3yAMCumElld24FCeFore8egR0BzlO0Q+NB+ygRg5pSc6XT6EDz7Lw1X4IbhnJ7Qz5OAfr6xDhjhm+/eWwGdwf2gClDi3/QB0de5+2A+7soya42zMewdL3pDz7UGRPwZ1hyaoHU5+e1gca/tlu5sXFVDFzcLCWTFQN9Nj17pVyDhf370qIiIioqZXdOIEmol/pcBEpWpf646LbcCS9d1+fPHFJvPnpnJLd1oMV6Tmuj+GTolDiL90N8SE/E9XYd36dLfekFSjAvkHpSvlslMHUSg1kFv7imafoBmEaBHQGYqyUdhCev2u5c8rtwjF8IImrJc0lawCOf/NqnnLklvz2rhahF1rX8XKj0T0IBqPSn8xX3gbeEkLbqls4MFqJdTSw+m1/sT88rf2wrtJl9H1yP7WJg3Kd2D7cUdhkUir76zTmWCovGH+dEVv7YxmQuGZ8+ZPCvlWgqlgKz7+f6/jy2yx8Qof+Ir9D/H1NqeRopXzOyaNMjgaUQqgOGcfDFKamdO7E/QFxeYAQdPH8RsX9P/dgHUvv4NdUg8vb5WYJwyW9xZ4QWlO7ApkHZX2MRjR8fKDHYN7IUJ81B3JMAcS4hNyPnoHK1ZvFesS+ya9qlnjbzlWIjFcexjenWXosHdz7WO270SVyLchiNDI42y5mxeDxiFtoghcK45gzSv/hy+PVudqIiIioh/Vf7Z9XX0XxXrHxT5g+ejDj82fm9ItBS2F6z/E9nNG0YgfhwWLnsby5Uvw7KI5GBJyC08J19cea9XK3JXHt2cKFj/6SM3fgsEIEeOVvnYPBdkuy915qyngP3wOFj6/ROzfUrywSMxz/wCoXdrF0/h40ZNYVOvvdWTK39rzkkJX0SjX273y2XjdEpDcMqlbW9pjeHbZi1i+7Gk8K/Z/waD2Yg+bnsLH0i0v5K6Ha6f3pHD4ivG+bTqZv6/DLwajFzyBZS+KbVzyhJhnHmZ0rx3gGLflml8vrOkZZx6O6hUs9kGH/35b8/SQb8xkzH9KOmYvYtlTYr3zxyKqlfyli1xfRiUq7R5v0ldcE/9tDm9H07uZF1X9e8AfVcjZvhY55xiwEBER0U/LPnC53QGL5NaeaTHlY8vf/4xFL/wfVny6G/sKDVD4hyN13lzzVfYmV1klmm6AIXcDlr38at2/9zMs0znS2Hl7T8dDo8Khvl6EjetXYdlfxP4++Q4y7XtSNRlveFufQZEpzMHMrdNMn2t+XsZYuAOrV76KF54RQdTbRxp5V6x+pmuWQKt4t4O0Fn8rNhWbv6/NB/EzJyM5RIlThz7Hipf/D88ufhKLt1nfUiAz7UZmoTiaIRGIVQxGdDcRApQeQZY1cGg7CrPviYFGqcOuT9dimQg2Fy16Bhul9wW4yq1lNK/zI5WWY3YDprrPp7mfFy+fRX5hAfIdJRkRERHRT8A2cJHczoBFcgtBiw/8Y+IwJC4cSoMOxembsXHlS1h3VDTHWnaCpmnfcmZxohhaE+Dr54+qUi301r+rvgjp3hEKk9QUdKKR8/p3D4AvjMj84h3sO1AE/UWj+Y6Fv3S7oIkVnpHCB38MHWvzOxyKvoi1u9PQOMHQdFECV49g4+qtohGshUFqUAepnHZXuyUFZeauWqr2HWvSWvq7oyPCQ9oBVY7uGEThTukGTEkGVq9PR3GpDkYxmfWVyzVMyD5yWvw3GNFzLV3DivP31jxbFBVsvmNRvOctfJkugjKd9ErpMKjd2VG3luGPqHibY1R9zPTQnrCMqsXNvKj/9hN89NEnv4gfXSUiIqJfDilwkQIV69/tdEt3WkIHjkTqxPuQNqkv1IFqqAdPw+gwL+BaGQodNdbMTkMn3aXw7YHRk0YhOtyNBrkpHduzReOxcxwe/V0KonqJdfYbhRm/m4MZ4yZjtJPHUswaOa9Oe1E0jpWIGjEOIdKzB73iMPXReDh6VOFW6TfvRrYIJFT95pi7RaXNfwSLnpuGCIeP+rvrNLTnRWO4dXeMnhhpfoYiZNhMLEwMlr9vYiVb8fWpKvj2moyFM0eZn+UJEflj/vxpSJ00DkMdvq1MbONF8U9QDFIHh5mfZwmf+DBmOXr+ZU8u8kTDX9M9TDTyi7B3m81v3ZzQmQOmkJgpiJKeIdL0RfLvpmOIO4Gmm8sITVyItIl9ESLy1NRHJyO2tXQnZR8yHcVmbuVFH0T/7ik8+9RzmD+8KYJXIiIioqYj3WGR/m63WwhaKpD5wRfYd85kbowufPQRLJSClx+02L7ubeQ4aqyZFWHLlwehMykRPjgR98RFyeNdo/3odaw+oAW6DMas2WKd0xMR7VuB/K2rsCbd6UrNGjVv+gZ8lF8BZWAcFkjPHcweh9DiXeYf+WtyojG77n9XYWO+Dl4q6dfzlbiStRbrjjXNMy05G79CtsELIXEzzc9QLBgdgKKdB29L9zApf2SvFPtSeA2deieaA7AFIn9ooMW+j97CFofdrLQib6RDW+mD2EnzLIFbDLB9n133MLN07DtqCeZMp3IhvVugWulmfLRHB2PbSMwS610sAqUE7MUWd7pXubWMs/h6awn8h0zDApGnYv29oM/fjBXvSy9vcMz1vFgJk/lHYaqkt4QTERER/So1a9+5xw/y58aT3vKkUqLKUAaDof7AwZbC1wcmg80Vcrco4Ruogpfpstx1xx2NmNe6j3q5W9VtoxD/F2lok4zq6U9jYT9g36ql2Fggj7wF0puw2iiNuFKqr/WugttGelOZf1t4GfWW7nUNkt7S1kkcpcYcWxvyeuFmvqzFnWVYp3Urj7iSFxVQeIssUfmjHC0iIiIij9M0QQs1jV6Tsei+GCjyN2Dl+1mQfsheETQKaQ8lQtO8COueWVX7jgIRERER0a8AgxaPokL0vEcwo7vdL4ncqED2ptexbs/t6chFREREROTJGLR4IEVQX/SL7GT5/ZQrJcjJPnKbu6QREREREXkuBi1EREREROTRbu3HJYmIiIiIiG4zBi1EREREROTRGLQQEREREZFHY9BCREREREQejUELERERERF5NAYtRERERETk0Ri0EBERERGRR2PQQkREREREHo1BCxEREREReTQGLURERERE5NEYtBARERERkUdj0EJERERERB6NQQsREREREXk0Bi1EREREROTRGLQQEREREZFHY9BCREREREQejUELERERERF5NAYtRERERETk0Ri0EBERERGRR2PQQkREREREHo1BCxERERERebRm7Tv3+EH+XK/uET3lT0RERERERI1TkHdU/uQ6l4MWIiIiIiKinwK7hxERERERkUdj0EJERERERB6NQQsREREREXk0Bi1EREREROTRGLQQEREREZFHY9BCREREREQejUELERERERF5NAYtRERERETk0Ri0EBERERGRR2PQQkREREREHo1BCxEREREReTQGLURERERE5NEYtBARERERkUdj0EJERERERB6NQQsREREREXk0Bi1EREREROTRGLQQEREREZFHY9BCREREREQejUELERERERF5NAYtRERERETk0Ri0EBERERGRR2PQQkREREREHo1BCxEREREReTQGLURERERE5NEYtPzKKLyV8idbSvgGqqFqb/+ds/FEvyQKUS4U8meql0IJRZMnFdOfiIga1qx95x4/yJ/rpR41B6NDgeM73sGuAnmkJDAOUyeEo833+di4djf08miJeoyYJxjI2/4O9hVGInn+EISe24fVnx+Rp/j1UA2bidQeQM6Xa5FZKo+8zezXqZr4GBbH+UO7+1W88oXWMlHPFCycPhhqb2lAj+0vv4Qt0vY5G/9rJ+d3HPsKH38rpyFZ9E5B2mB/ecBOdf3wI9YD8vacSl+F7YflcQ6Epy1Bmjik2R89g3VZ8sifkYbqFsv35oLs1BWX8nMMZiydjGjkY/XT74j/qhE7cyyixCf7ut8dTZr+LpRPTco8JHTWYefKz1Eoj6tWZ34H+6jwR9TdKUjuGQiV1w3oS/Kw/fPPkXPOJH1LRES3ict3WrRVrRCuCcfACLU8xkIZHYNYTRjCe8egV1t5pFkYYmPCxTytYDolDftDI03XxUmjxi1hGP34c3hhyRxxAvU0gzFjidi2x1PEHtdQBoSItAiB2kce8SOwX6fxogGGa0boL162jIACsUlSYFKF4gOb8fGnm7HX3OhxNp7gozbnY01A/Y1Al901R+Tj57BwUpg84mfMTy3ym1TGAxESZPfnrxK5StKU9UAD5O3R+MnDThguG2C6ZoDeWiyclGFP1VDdolB1tDkWwZb01wTbjAuEWuVKftZDb6iCySDqEfOwN9RdxbK6qnEr92Lrpv8tcKF8qrpI+6+GSh6upc789vuoRvKjj2HWwDB0uqlHsYhiOmliMGvBg4htIJ8REdGtcb172P5iFIt//DV9bU5QCkR1tZ7W2yO0p/xR0jYcal/x77li5NyGC1DK1koovVvBSx72HN7w9RbbJrbP07bNuHsVXnj6z1izu0IeIxo65jP3WWSu343M9CNyY8TZeGpyLVqJfCzyS0t5+Beg8Js/49ln7P7+/jl08veeRvvJS1j89EvYUn0H2XPLcGPoPv0/m2PxDjKlwmw4gpU2x+eVT4ssE9erCFv++gwW/3UDmvIeY93092DRSUgQpzzj0Q1YvPRVrH55Kf6yVQtTy2Akj/gFXHggImpAWFg3xAzoD1X79vIYx0aOGG6etik1V/r4PS9/rt+176HqNxDdVCac2X5AboD0xpAJvaC+pIeulQ8CbpRjx6Fz5m8wdASm3tkWuoNfYOcx6SzZFQNGaqC6XISMH/pj7px7kDJyGAZE+sFw+jh0FTct8wkKTRxSZkzDjAnDkZgUhz7dfHH2zHFc/l76VroKOhX9WjcXEVdb9IgfioRu17Eju8Q8bx2dI5F870zMnDQSyUnS+gJgLMvHucvW9UnLS8PUbjdxpMMoPDx3AkZXL0+FkIn3Yu69KRg7XMzbNxgoP44zeidRmCYFCx8dilBFc6BlB/SJj0ef9iXIyLuINlHxGBQAnDl8CqqJaZgrbU9cfwR465BXdBE1ey+ExCF1prz/YppuHU0oLiiFsdZEdhTBGDJXXm6SOE7Nz+BU6z6IldZ5YBfyL4hppKv681IQULUTOS2kbR2LHrbp2K8djpwPxzxH49OP4aq0noa2zboO00n4jpmPeXcPt6zvtPhObGP0vfdh5r1jMVo6rt074qrW9thbj8V1fKcYWCuP6E/kodx8/GW1luU4HzW8PsFuOXEDuqJKd8z5Me7QC3H9O4t4LgcFnVMt+cWcR5U4k1cEQ63Z6s8//pMewx+HBMJLIYLwjr0RNywaLc+kQzHuafx+ah/cOJaJYjlaVE95DIumjxTHdT+yT1y3jOw9DYsWTEa/NieRecxymdq31zhMmX0vpo5JROLg3vBrdQEF9vmroXSpzic5qIqdi7nTpekGonuH6yg4Wgp57XV1jcFIUeb1hV9j/0l5XB019cC2TPMtWEEBVe8xSJ0lb7dULtpewalj583r8h3zCJ6ePRJ+FbsgVm8RN09s4wQM6FyOfbnnLePaJiLt6dmYEHodOw+K8lu9PQdwddADePjeMeayIe3HSZs8az4OMwab075Q5bwMm7mSp+wp/KEZPxWz5HyQODgS7VCG/P/f3v1AR1XdeQD/aieSgQzIVCeQYIYlYxz+BAkINqlRMdhkN4s2oBY4JtjDwbA0urAuLvQsnIXa0oot9ch2zdKcWl2pxXWpVVsiRRQwuKCENiCzORPK0CTCQKcnJDhAxnZ/9703k8kwk8xMEncO+/2cM2RI3rx33/3z3v29d++bU8FbC+rO8eOoKroeze1ZmPvow1o+aHWx7Sj+EDpWCdl+v+28T1ZMvGsGbsJpfPDe0YiLEWZk3/0AFi2ar7W7yHIIT6d+POi9LiRZTr3y3xdWHm1tsH017FiZ1oamE+G3Y0ywzanC0oeN9pV3LdytGZheoNrnYew/apRZhOxZczD5+g58vOvQlcFXqH0HPx+RX6ZrcanrLA5+sBfnzusfuWyagFnyGeul09h1SB3oiIiuXsv+7lHcJkFLVlYWTrScgP/iReMvPZYtk2VmztCW27XrN8ZvBy6BifhywjjVJeeJLDiDY7LynHCkA17XW2g6J6c8uxPBwWOOm26Uf7vgPh5xWrB+GTXzpsB8oR3eS3LSsc9E1bKFcBh/xiTpiFWXo2jcdfC2tsNz7jKszmLU1FTCoY0vOY8zrV6c1/p9fnmvljHOHpFumI1q+VyZ0wL/OVmu1QfTuGlYVPM47gzdyjeuqt50D5aV5kDdHNJZMatmJWqKnRjp92mfhXUyKqqfxKLCGJNGP/WhrfVPekcgcEnet6PNF16YX4Bz3tcxd2w32s51IjDchoI5S7Hsr8PGdcj+r6mR/c829r9zOJy3z8ealeWxh6qYnKhYvRwVThvMl1Ra/XIyX4pFudLxCmdc1bdcJ++1tEbko9eHQKzfq//GkzZjG46Sr6NifE9uBtO4aPpYmHyqLDpglk5l1YrHUTLOWCZYFtklqJnfu44sWTY/VLd61pUD83nZX8lL8zhZ1xOrMTcvcpm+tpctnTC1jNRVo374R8rnqh9DWWiZ6My5D6BmTib8kg/eS8OQ7ZyNFf+4APZQ1ei//gR8Z+Hp8OvvL3hlmbPwSWDmavNJHmZjakGwXmQjP1fKVvLG6Zxp/E5+O9kBm7S/M6f0jpLlnuVYtbgYBSM/1eveZ5IGqQfrlhRqf9fEky9GGdplfUtuTcd5lS8mKxxS1jUPDf7VZMs9j2JFpUr3ZT3dlywoKK6UgGy21h47W87Cn56B/EnT9A+IfKeUvaTRdnN+T72YMRFO+Z3P22T8Qmctkv2YZJa67INPykXtx4pl+rqVtGFqf+WljoZ9teG46lQkKYNlj6Fa6oFVa5tSX1Tgcd9y1JT3DFDS7hxfn4+qpffAHjiDNjmkWWyyvaWPoiA47NbYfr/tPCkm2Bc+gRXl0+Q4q6czWA4rF/fku5bOGHegki2nXvkf+r9se8HS3sfK0qVYUhxsEyq9q7GqVM455s+045E/s1TOLY4BDVXrV+sRNNTXwxW6RibHutslCJd3nhON+q+IiK5iHx36SPup7qI89LUHr7jjogKW4B2WXW8PXsCiJBC0SNji8kg31ozxOfrpxzoxRw7WKjA5pgc0lizkaifYXOTb5dRx0YOmyFv+5g689/31+OGzW7Hlqe9g28luYMQEFBiBkNXSDU+7C2888xS21G5F3bNPo/awrHtEHoq0/tox7K79FVxaX+8sGtQyMSb0mqzXwXf2FPZu+zY2yfbqap/DxrdVB8+G278cOoXqRnTifUmXNlyi7gBwx3xU2NPgO/wCNmx6TvvspvWv4OAFMwpmxxjr3r4Pr9Y24ox673fjTUlb78mgkicnfq4PK3j2B9jw/CHtjpV90l3GiVY60V+dJp2bU3j1+8b+b34KG96VpWxfQtkd0YMl8733okjy3df4gr5utZ/PvAOfdC5i0tIakY9qomms3yeYNkvnh9i4dq2Wn9v2yyJfvU/S2A33rzdj42ajLJ7ZB88XbJhTHtapVlQdeSZYRzbjDXXzbtRETDciW31d0kl492m9bFRevnhE0piBorv0dcW1PceXUCDBq//o66H6sam2Hgfdn+DTjBgTBAzmER3YadTRLU+tx5ZGqaOjpmHuvcbn4qg/vndfQt1H+tXn8y2/kmWMidTGUEy7dIg1st7QvIzMcUaAL4FMjmzr4gk0qr6SqRAV90oHseMItqz/AWolXbXf+zZqj0qLlaA/GIQlUg4jO97HhrVqXbLM92UZ+Z01b1rs4NmQOUM6l9W9XyVTjT9GGjUbi1S6O1W6pa2Hp9t+DypUvWp2wS1xQ89FkWlw5hjd5tAxRzrIuWPlXy9+tz84/FFnvdZtrPs5/HDt09jR2i3ruhNl0dLURxtOqA4HjRiN9A4v3IdewbrvqXog9eU79doEcPuUYq2zGyIBqGvbem3dtZv0PMCwHEw30plUO4+bFSM/a4XHtQcbNujprP3ef6BBojeLBMr5xlJ9GmA59Sb75H6551j5czVENQ3OqcaJYlQJ5k6X+q/qzVqjHW54Gjs7hxnH0s9B+mSUPfEkqqdmwH+yHj/9dV/7Q0R0dXh7129CwUhk4BIesBz68CNt2cGUUNCCRjfcATl5a/NaMjDFIadcIzDRAxobJs6QToYxnyVwSpY3Phpy+igazhnv5RONxz+Rn2bZYf03vv9+Dds2v4C9apl0K6xZudDniKbBnODZKNBcj1ef/RHeaJREmzLkvJkNuyVdu2tgGh6caGlobcTusKe/FNyaCxPacFDO2lb12F/1sp2FyyMdidF2OI0TcGK64DriMt6Lk0fgVpd0R1j0zovqREs+dLY0wn2dsU15pR1tkQ5jGhy5U9RSV3BOUF0EHxrfDVv3uT3YrUcegyPBtLl/W4+eEVa5uN0pe3ihBQ0uKWvjs9brmnBcOummcY6eO21KrzriQ0u76gxkwKb6OsF1BVrw3lvas3x0H7+CjatWY81WCTjj3d7ZLu2Kuvlm6dRPz4VUDakHe6TT+hL2uvrugPhd+8LSGJAAqkkPQCfonaoB1Z+O9/A7FahlO/TO4qQs6QR2oWF/CwLpduSru0lGIBNqY4UFyJem52lqQKfN2F5WJnzNHtlHKxy3qmAqsXI4eWyflj+acy60qf+MyjQ6pLFZbGqic+9XzMnwUydqd1C9v5XOf6i+BOA+8D9S8mmYOFEFbkfk0CP5ZslBfpb8N8uO8VJW7v0q6DeOOcEO8rkWHI2Y0O356M2wdfvQcPCUbMEMhzORu0YJ1uEgWX7vS8+hdvsR+Y8JZlU2zpFIU+kZZu7dwe504/DHwYRKHvxBD2htY/V0Dm0796Jp+wvYUlevlblptKTTYdPTZ5Jjr/rZr4GVU28Rx8rGVj2QHG3Tg+apubDLj971Rsp2b7OcVT4PJuRXLkDJGBM8aq7gv+7paStERFe5aIFLZMCy/eevau8HU2JBCw7BpS463pAlJ+h8jA/vNBkBzfhc6WTMsGsnlJMtUZ5f+ZnxM5YbZqKs5kls/O53selbT2LNyqVYlNf3Ve+Y1DCMJf+AdRtlXRv/GetWPoaaL42W000UvdJlDKGS7llZzWOShp5X1SR1+h6OL2aqvychdIKNYrj+YAHLpPt7bXNNTaGWn2ZL71twQWnXqH+74FNX6cP4L/eX2QlING1/Dt/RdGhfwzDCiarwz65cjjLVuUk3gragGMmWvpMw1uXvlC5KLHFur6MeP33dBZ8pGyULl2Ldt6SePPUkqh+YGTZMMDr/5YguSvt5aIMUrxuuuqYDrD9dOKoG95sy4ZAAxZGXBdMFD5recuOkBG8O9QS/iDZmytCHCNnvWN5re2vmObV9sYxUG0ywHHqVYQ+tGPrg/vVqrJIAMvxV+47xxwjBdJ/vjBhG2nxGK1/TMP3igru5XZqOFXan5G5BrnRc23D8XT3o1445xlBV36mjV9SLbn9EAPrHTq2s0ox1xyfBvAtR8y4ewYp/+RY2bXoKG1bJZx6+DdlqXVFEzXFj9NdQt3PLzPmo/qZK53ex8ZuSzuq/Qf5w449xGkg5XSFaZlybptc/oxJeUW8udH9OQctMFEyQRJz7ENt+2dLnYZ2I6GoUGbgMdcCiJBi0BND0e6+ch7PgnOfQrpD2BCZ6QGPKcaBMm8/ixfGPEj2UZ+DOyvkosZtx8revY8vmH2DdmtVYsyu5yY2OhV/Xxn/73Xu0oRQb1koH6ifH+j9ZymnvYrf62Yadm5/Dxite/46dJ7QFB5dsVG228+hrUbYpr5c/0JeLSjpVEVfvTVonZ5AMKG0XEVBziTuP4cVon938Cg7rC8bBWJeI0e8T8W+vc/8L2Lh6PTbUvoJXDxyD57I+52HZ/X3fT0i7JqLrHkxM92VpJQOvP77jp6SeqgClUBtq6f99E9yBQzh+Wr/Tma+1MekQGm0scEnvuHr2Rdvec9jyphrcNZjlMDiC6ca1EaU5KuLJgIdUwKZ3fLUnFp4+gUMdLWjy+LVjTv7NWdJV9sN9LMpTsCLXLf9V6+4OXDl5MLYk827qQixT8y4ut2DHz7Zi43fWY9Vq4wleSRmidj6qFIsfmgmH2Yu9//USNkqAtWrVWuyI8XyTmAZSTklIM0dc0DLKtn8ZsKpgM1KmNUbwGek82k62wOVyx3E+ISK6OoUHLspQBixKgkGLdOcbWyQcMWPWrMnyb3hgYgQ06Xkoutkcx+3/aPJxs7og3PoB6n52AJ52L/yy+mw5kSQuB46bJB0XjmFHXT1c7jZ0qj7KuPhOSidPq1ORLJt5Br72ttALY6Yg2xqQDo++3KA64UGbrNdygw3dYdv0XbDAnncjTAGtJ3yFtj+qK8k2TL0jfM9yMd2R5B2qaJJMm86Dk2fk75YbMfpy2GfbO2CRyNyWpjr68WqB+xO1rlswqyCsM2oqRpX6bg1t0nl82zPdMBn5paVwjvOj030EB6WztuVH+yQUkNy8KTijPzqLBA7hYY2ltEAbHuT7ox5gD7j+GPMDbLeWwGnphrtZDS8y7sCMKUDFX0nd1jqE+uLqzoQanmYdfWOv7fmuvRFO+/Wqhy5/HcxyGCRGuh35Jb2GIFnuuEUf/vMHY1KcEbCZckpQIhnvlfJSV9S1K/vpE1AxQzrIan5PlC+RHO8sDlu3CY6Zt2h3n3xnVCAXr+TyzpY3Vrblx8FfvoCGwy3w/UlSbcqBrb9beVEMaTvPz9Hy27P/x3hDgnefV20r13j0eQIGUE4J0R6qANidd/W6K5p9q6Pfu6TBtllwt1P/RYgVd87KkZ/dWkDSt2PYve01bHvr/98XJRMRhVOBiwpUgq+hlHDQgvaj+jwMNWQhIjDRA5o07Tsn4rr9f4VTaFNPmRw3ExWFuVDzWZz3LUeVNh4/nHSgtZWPRVFlOYqmR7sqLus6K52MEXkou2+yNv7cfnclVsxWJ6X+eXcdgOuSBGfzH8eDpdJBzZIO7sLHsGLhbFSVR0yg7eUUvCp/pFNdNq8UBc4EOhSBA9itJnSPKcbKb9yP/CnZyJ5eikXfeASLyuejLPqUFrTtel8bmme/+zEsmVcI+5RCzP37h1Fglv0fLEmmTRdA4x41Ud6GuTXLUVYo5SGd/qIly1FzXzkWfSWuab4hTe+pdRllc/dkLR0PrvwK8tNN8DSrJxLFt72ANR9/O2c2ljzyCGbJ/liljIu+dpsWjIQ6yzEEzJNR/USlfE7qxbzlWHm3Gmnvxfu79M5O3PXH6HxZbylFWWkx7KGr6MH5ARmy7CdwGTc0g3dgLCN6OoSa1nr85mQ3LFPmY0WlBGIOqe+FC1BdvQAV88rxZW1OyeCWw6Aw0o2s2ahZotKtt3ktPy+1YOdbweE/XTjkUhdFJD9MYU8l1K7sm2GRnmrUOXRK9p1YUV0O5xTZ18rHUTVFv5ixe2+sEC1aG04u77xyQFPzZ/LvLYddzYGZUix19c7o81/6MaTt/IRXCx7tMx9AvvriRdm3km8sRFHCwdUAyikRzW/jvVbZ79DxSG9f1ZOHSX73zfuLfWi6JG2u4BFs+KdHpN2VomheJWrWPYm5Y+Q85nkHO9TUuL7kzccaWX7DNxckVZZERFcTdYdFvYZa4kEL9Fv9itf1odbhCgkGNOr2vyuZ2/9t2PnGAbRdzMCseUuh5rMsmQnsbogcHhbAwV/sgftiGrKnFqPi3tuiBhFNO36Fxs402IsrtfHnNWVj0aJ1eOPQsQ91W+vhujgas+YswIqVlaiS4CjQfgR1dX19UZ50tN44Am/ADGfhbDxUnFhHsG37j1B3WE70NxWiarHeyS2wdMFVvxUvHohxOj63B3UvH5J8U9u8HzWL78dM0xHsVGfmQZRU2oKaX8OW7Ufg+UIOSqSDsEZ1pp0W+Nz12PKT/noIEYx1tf3FhlnlEohKOmZ9MQDP/pdRF/zizHi21/yfqKtvgS/DiQdlf9ZIGVeMN8Hneh3Pvx7sLEd3vukdNGCCfE7qRWEOLBe92P3Tf9MfIKHEW3+a38SrjT4ERkg653wFd4V9Qas+P0CEf0GrcQdGdQ57P068C421W7HDfQmZUyUQq5b6Pm+adKja0LD9x9gZHOYzmOUwKILp7oLVqdItbb5YPQXNhW1bftLri2n1iyIi/KmExpV9JeocOnHywNvwZBZjyWLZ16k2mDtl3c//TAsAoovRhpPJuwOvYburC+asYtSoOTCLyzHes1d7KlfChrKdt7+F7fu98I+ajCqpO2rf7sL72JnIzShDsuWUGB8aal/B7tN+WMar45G0r0lpaHj3mD63rC+BA3jxh6+hod0P8w1OaXezUSFBqN3il3OalOXzcUyq/zSgt80/f15zaIiI6JrRY275i/E+hain7GTCjA5jmEIfLBkwdXb1eXVNPQlnpNmP8+3G940kymKD1ZKGbp8xxCxOJklbQNKWHDMsWVakBeLIgxAj37p9+jCUIZNM2nro5SEne68+/G8g4inb/rdn5Jsp8TqirTutn3yIq/6YYbZIGnt/O2Vy1JPybKOQ5u+7HgxmOQwKI93oPIPOwciHXpJrG7HacMJ5p56EaDUnfAyJbgjb+ZCWwRDR2lcgueN7sK1I6JHw59PNMF30J3dOISKihKVo0EJERERERKRLYngYERERERHR54dBCxERERERpTQGLURERERElNIYtBARERERUUpj0EJERERERCmNQQsREREREaU0Bi1ERERERJTSGLQQEREREVFKY9BCREREREQpjUELERERERGlNAYtRERERESU0hi0EBERERFRSmPQQkREREREKY1BCxERERERpTQGLURERERElNIYtBARERERUUpj0EJERERERCmNQQsREREREaU0Bi1ERERERJTSGLQQEREREVFKY9BCREREREQpjUELERERERGlNAYtRERERESU0hi0EBERERFRSrtm9Jhb/mK871PexEnGOyIiIiIiouQ0H//YeBe/uIMWIiIiIiKi/wscHkZERERERCmNQQsREREREaU0Bi1ERERERJTSGLQQEREREVFKY9BCREREREQpjUELERERERGlNAYtRERERESUwoD/BWJp+qmOP6WBAAAAAElFTkSuQmCC;" vertex="1" parent="1">
                    <mxGeometry x="-840" y="80" width="813" height="356" as="geometry"/>
                </mxCell>
            </root>
        </mxGraphModel>
    </diagram>
    <diagram id="-xYOqBEcQX127p81uZba" name="Search">
        <mxGraphModel grid="1" page="1" gridSize="10" guides="1" tooltips="1" connect="1" arrows="1" fold="1" pageScale="1" pageWidth="850" pageHeight="1100" math="0" shadow="0">
            <root>
                <mxCell id="0"/>
                <mxCell id="1" parent="0"/>
            </root>
        </mxGraphModel>
    </diagram>
</mxfile>